<?xml version="1.0" encoding="UTF-8" standalone="no"?>
<!-- Created with Inkscape (http://www.inkscape.org/) -->

<svg
   width="3565.812"
   height="428"
   viewBox="0 0 3565.812 428"
   version="1.1"
   id="svg1"
   xml:space="preserve"
   xmlns="http://www.w3.org/2000/svg"
   xmlns:svg="http://www.w3.org/2000/svg"><defs
     id="defs1"><rect
       x="543.21234"
       y="75.308983"
       width="1924.7"
       height="572.8421"
       id="rect2" /><rect
       x="543.21234"
       y="75.308983"
       width="1924.7"
       height="572.8421"
       id="rect26" /></defs><g
     id="layer2"
     style="display:none"
     transform="translate(-36.125,-35.875)"><path
       id="path39"
       style="display:inline;opacity:1;fill:#e14a6d;fill-opacity:1;fill-rule:evenodd;stroke:none;stroke-width:0.194537;stroke-dasharray:none;stroke-opacity:1"
       d="m 250.125,49.875 a 200,200 0 0 0 -200,200 200,200 0 0 0 200,200 200,200 0 0 0 200,-200 200,200 0 0 0 -200,-200 z m 0,27.087891 a 172.84727,172.91135 0 0 1 8.48047,0.208984 172.84727,172.91135 0 0 1 8.46094,0.625 172.84727,172.91135 0 0 1 8.41992,1.039063 172.84727,172.91135 0 0 1 8.35937,1.449218 172.84727,172.91135 0 0 1 8.27735,1.861328 172.84727,172.91135 0 0 1 8.17773,2.261719 172.84727,172.91135 0 0 1 8.05469,2.664063 172.84727,172.91135 0 0 1 7.91601,3.052734 172.84727,172.91135 0 0 1 7.75586,3.439453 172.84727,172.91135 0 0 1 7.57813,3.816406 172.84727,172.91135 0 0 1 7.38086,4.183591 172.84727,172.91135 0 0 1 7.16797,4.53907 172.84727,172.91135 0 0 1 6.93554,4.88867 172.84727,172.91135 0 0 1 6.6875,5.2207 172.84727,172.91135 0 0 1 6.42383,5.54297 172.84727,172.91135 0 0 1 6.14453,5.85156 172.84727,172.91135 0 0 1 5.85157,6.14649 172.84727,172.91135 0 0 1 5.54101,6.42773 172.84727,172.91135 0 0 1 5.21875,6.68945 172.84727,172.91135 0 0 1 4.88477,6.93946 172.84727,172.91135 0 0 1 4.53906,7.16992 172.84727,172.91135 0 0 1 4.18164,7.38476 172.84727,172.91135 0 0 1 3.81445,7.58008 172.84727,172.91135 0 0 1 3.4375,7.75977 172.84727,172.91135 0 0 1 3.05469,7.91797 172.84727,172.91135 0 0 1 2.66016,8.05859 172.84727,172.91135 0 0 1 2.26367,8.17969 172.84727,172.91135 0 0 1 1.85742,8.28125 172.84727,172.91135 0 0 1 1.45117,8.36133 172.84727,172.91135 0 0 1 1.03906,8.42187 172.84727,172.91135 0 0 1 0.62305,8.46484 172.84727,172.91135 0 0 1 0.20899,8.48438 172.84727,172.91135 0 0 1 -1.75977,24.60742 172.84727,172.91135 0 0 1 -5.24219,24.10742 172.84727,172.91135 0 0 1 -8.61914,23.11524 172.84727,172.91135 0 0 1 -11.81836,21.65234 172.84727,172.91135 0 0 1 -14.77929,19.75 172.84727,172.91135 0 0 1 -17.4375,17.44531 172.84727,172.91135 0 0 1 -19.74219,14.78516 172.84727,172.91135 0 0 1 -21.64649,11.82227 172.84727,172.91135 0 0 1 -23.10546,8.62109 172.84727,172.91135 0 0 1 -24.09766,5.24414 172.84727,172.91135 0 0 1 -24.59961,1.76172 172.84727,172.91135 0 0 1 -24.59961,-1.76172 172.84727,172.91135 0 0 1 -24.09766,-5.24414 172.84727,172.91135 0 0 1 -23.10546,-8.62109 172.84727,172.91135 0 0 1 -21.64649,-11.82227 172.84727,172.91135 0 0 1 -19.74219,-14.78516 172.84727,172.91135 0 0 1 -17.4375,-17.44531 172.84727,172.91135 0 0 1 -14.77929,-19.75 172.84727,172.91135 0 0 1 -11.818362,-21.65234 172.84727,172.91135 0 0 1 -8.619141,-23.11524 172.84727,172.91135 0 0 1 -5.242188,-24.10742 172.84727,172.91135 0 0 1 -1.759765,-24.60742 172.84727,172.91135 0 0 1 1.759765,-24.60742 172.84727,172.91135 0 0 1 5.242188,-24.10742 172.84727,172.91135 0 0 1 8.619141,-23.11524 172.84727,172.91135 0 0 1 11.818362,-21.65234 172.84727,172.91135 0 0 1 14.77929,-19.75 172.84727,172.91135 0 0 1 17.4375,-17.44531 172.84727,172.91135 0 0 1 19.74219,-14.78516 172.84727,172.91135 0 0 1 21.64649,-11.822266 172.84727,172.91135 0 0 1 23.10546,-8.621094 172.84727,172.91135 0 0 1 24.09766,-5.244141 172.84727,172.91135 0 0 1 24.59961,-1.761718 z" /><rect
       style="display:inline;opacity:1;fill:#2f00eb;fill-opacity:0.71;fill-rule:evenodd;stroke:none;stroke-width:0.197661;stroke-dasharray:none;stroke-opacity:1"
       id="rect40"
       width="22"
       height="80"
       x="291.96457"
       y="193.34941"
       transform="rotate(38)" /><rect
       style="display:inline;fill:#2f00eb;fill-opacity:0.71;fill-rule:evenodd;stroke:none;stroke-width:0.197661;stroke-dasharray:none;stroke-opacity:1"
       id="rect40-1"
       width="22"
       height="80"
       x="385.28043"
       y="193.34941"
       transform="rotate(38)" /><rect
       style="display:inline;fill:#2f00eb;fill-opacity:0.71;fill-rule:evenodd;stroke:none;stroke-width:0.197661;stroke-dasharray:none;stroke-opacity:1"
       id="rect40-15"
       width="22"
       height="80"
       x="354.17514"
       y="193.34941"
       transform="rotate(38)" /><rect
       style="display:inline;fill:#2f00eb;fill-opacity:0.71;fill-rule:evenodd;stroke:none;stroke-width:0.197661;stroke-dasharray:none;stroke-opacity:1"
       id="rect40-7"
       width="22"
       height="80"
       x="323.06985"
       y="193.34941"
       transform="rotate(38)" /><path
       style="opacity:1;fill:#2f00eb;fill-opacity:0.71;fill-rule:evenodd;stroke:none;stroke-width:0.328128;stroke-dasharray:none;stroke-opacity:1"
       id="path46"
       d="M 375.10428,89.908817 A 203,203 0 0 1 453.125,249.875 h -203 z" /></g><g
     id="g17"
     style="display:none"
     transform="translate(-36.125,-35.875)"><text
       xml:space="preserve"
       id="text2"
       style="font-style:normal;font-variant:normal;font-weight:500;font-stretch:normal;font-size:303.391px;font-family:Montserrat;-inkscape-font-specification:'Montserrat Medium';letter-spacing:-5px;word-spacing:-10px;white-space:pre;shape-inside:url(#rect2);display:inline;fill:#e14a6d;fill-opacity:1"
       transform="matrix(1.7920945,0,0,1.7920945,-506.35989,-194.37929)"><tspan
         x="543.21289"
         y="354.15329"
         id="tspan3"><tspan
           style="font-weight:normal;-inkscape-font-specification:Montserrat"
           id="tspan2">PENSHOCK</tspan></tspan></text><g
       id="g18"><path
         id="path9"
         style="display:inline;opacity:1;fill:#e14a6d;fill-opacity:1;fill-rule:evenodd;stroke:none;stroke-width:0.194537;stroke-dasharray:none;stroke-opacity:1"
         d="m 250.125,35.875 a 214,214 0 0 0 -214,214 214,214 0 0 0 214,214 214,214 0 0 0 214,-214 214,214 0 0 0 -214,-214 z m 0,41.087891 a 172.84727,172.91135 0 0 1 8.48047,0.208984 172.84727,172.91135 0 0 1 8.46094,0.625 172.84727,172.91135 0 0 1 8.41992,1.039063 172.84727,172.91135 0 0 1 8.35937,1.449218 172.84727,172.91135 0 0 1 8.27735,1.861328 172.84727,172.91135 0 0 1 8.17773,2.261719 172.84727,172.91135 0 0 1 8.05469,2.664063 172.84727,172.91135 0 0 1 7.91601,3.052734 172.84727,172.91135 0 0 1 7.75586,3.439453 172.84727,172.91135 0 0 1 7.57813,3.816406 172.84727,172.91135 0 0 1 7.38086,4.183591 172.84727,172.91135 0 0 1 7.16797,4.53907 172.84727,172.91135 0 0 1 6.93554,4.88867 172.84727,172.91135 0 0 1 6.6875,5.2207 172.84727,172.91135 0 0 1 6.42383,5.54297 172.84727,172.91135 0 0 1 6.14453,5.85156 172.84727,172.91135 0 0 1 5.85157,6.14649 172.84727,172.91135 0 0 1 5.54101,6.42773 172.84727,172.91135 0 0 1 5.21875,6.68945 172.84727,172.91135 0 0 1 4.88477,6.93946 172.84727,172.91135 0 0 1 4.53906,7.16992 172.84727,172.91135 0 0 1 4.18164,7.38476 172.84727,172.91135 0 0 1 3.81445,7.58008 172.84727,172.91135 0 0 1 3.4375,7.75977 172.84727,172.91135 0 0 1 3.05469,7.91797 172.84727,172.91135 0 0 1 2.66016,8.05859 172.84727,172.91135 0 0 1 2.26367,8.17969 172.84727,172.91135 0 0 1 1.85742,8.28125 172.84727,172.91135 0 0 1 1.45117,8.36133 172.84727,172.91135 0 0 1 1.03906,8.42187 172.84727,172.91135 0 0 1 0.62305,8.46484 172.84727,172.91135 0 0 1 0.20899,8.48438 172.84727,172.91135 0 0 1 -1.75977,24.60742 172.84727,172.91135 0 0 1 -5.24219,24.10742 172.84727,172.91135 0 0 1 -8.61914,23.11524 172.84727,172.91135 0 0 1 -11.81836,21.65234 172.84727,172.91135 0 0 1 -14.77929,19.75 172.84727,172.91135 0 0 1 -17.4375,17.44531 172.84727,172.91135 0 0 1 -19.74219,14.78516 172.84727,172.91135 0 0 1 -21.64649,11.82227 172.84727,172.91135 0 0 1 -23.10546,8.62109 172.84727,172.91135 0 0 1 -24.09766,5.24414 172.84727,172.91135 0 0 1 -24.59961,1.76172 172.84727,172.91135 0 0 1 -24.59961,-1.76172 172.84727,172.91135 0 0 1 -24.09766,-5.24414 172.84727,172.91135 0 0 1 -23.10546,-8.62109 172.84727,172.91135 0 0 1 -21.64649,-11.82227 172.84727,172.91135 0 0 1 -19.74219,-14.78516 172.84727,172.91135 0 0 1 -17.4375,-17.44531 172.84727,172.91135 0 0 1 -14.77929,-19.75 172.84727,172.91135 0 0 1 -11.818362,-21.65234 172.84727,172.91135 0 0 1 -8.619141,-23.11524 172.84727,172.91135 0 0 1 -5.242188,-24.10742 172.84727,172.91135 0 0 1 -1.759765,-24.60742 172.84727,172.91135 0 0 1 1.759765,-24.60742 172.84727,172.91135 0 0 1 5.242188,-24.10742 172.84727,172.91135 0 0 1 8.619141,-23.11524 172.84727,172.91135 0 0 1 11.818362,-21.65234 172.84727,172.91135 0 0 1 14.77929,-19.75 172.84727,172.91135 0 0 1 17.4375,-17.44531 172.84727,172.91135 0 0 1 19.74219,-14.78516 172.84727,172.91135 0 0 1 21.64649,-11.822266 172.84727,172.91135 0 0 1 23.10546,-8.621094 172.84727,172.91135 0 0 1 24.09766,-5.244141 172.84727,172.91135 0 0 1 24.59961,-1.761718 z" /><rect
         style="display:inline;opacity:1;fill:#2f00eb;fill-opacity:0.71;fill-rule:evenodd;stroke:none;stroke-width:0.197661;stroke-dasharray:none;stroke-opacity:1"
         id="rect10"
         width="22"
         height="80"
         x="291.96457"
         y="193.34941"
         transform="rotate(38)" /><rect
         style="display:inline;fill:#2f00eb;fill-opacity:0.71;fill-rule:evenodd;stroke:none;stroke-width:0.197661;stroke-dasharray:none;stroke-opacity:1"
         id="rect11"
         width="22"
         height="80"
         x="385.28043"
         y="193.34941"
         transform="rotate(38)" /><rect
         style="display:inline;fill:#2f00eb;fill-opacity:0.71;fill-rule:evenodd;stroke:none;stroke-width:0.197661;stroke-dasharray:none;stroke-opacity:1"
         id="rect12"
         width="22"
         height="80"
         x="354.17514"
         y="193.34941"
         transform="rotate(38)" /><rect
         style="display:inline;fill:#2f00eb;fill-opacity:0.71;fill-rule:evenodd;stroke:none;stroke-width:0.197661;stroke-dasharray:none;stroke-opacity:1"
         id="rect13"
         width="22"
         height="80"
         x="323.06985"
         y="193.34941"
         transform="rotate(38)" /><rect
         style="display:inline;opacity:1;fill:#2f00eb;fill-opacity:0.71;fill-rule:evenodd;stroke:none;stroke-width:0.197661;stroke-dasharray:none;stroke-opacity:1"
         id="rect14"
         width="22"
         height="80"
         x="293.4642"
         y="-199.63161"
         transform="rotate(38)" /><rect
         style="display:inline;fill:#2f00eb;fill-opacity:0.71;fill-rule:evenodd;stroke:none;stroke-width:0.197661;stroke-dasharray:none;stroke-opacity:1"
         id="rect15"
         width="22"
         height="80"
         x="386.78006"
         y="-199.63161"
         transform="rotate(38)" /><rect
         style="display:inline;fill:#2f00eb;fill-opacity:0.71;fill-rule:evenodd;stroke:none;stroke-width:0.197661;stroke-dasharray:none;stroke-opacity:1"
         id="rect16"
         width="22"
         height="80"
         x="355.67477"
         y="-199.63161"
         transform="rotate(38)" /><rect
         style="display:inline;fill:#2f00eb;fill-opacity:0.71;fill-rule:evenodd;stroke:none;stroke-width:0.197661;stroke-dasharray:none;stroke-opacity:1"
         id="rect17"
         width="22"
         height="80"
         x="324.56949"
         y="-199.63161"
         transform="rotate(38)" /></g></g><g
     id="g26"
     style="display:inline"
     transform="translate(-36.125,-35.875)"><text
       xml:space="preserve"
       id="text18"
       style="font-style:normal;font-variant:normal;font-weight:500;font-stretch:normal;font-size:303.391px;font-family:Montserrat;-inkscape-font-specification:'Montserrat Medium';letter-spacing:-5px;word-spacing:-10px;white-space:pre;shape-inside:url(#rect26);display:inline;fill:#e14a6d;fill-opacity:1"
       transform="matrix(1.7920945,0,0,1.7920945,-506.35989,-194.37929)"><tspan
         x="543.21289"
         y="354.15329"
         id="tspan5"><tspan
           style="font-weight:normal;-inkscape-font-specification:Montserrat"
           id="tspan4">PENSHOCK</tspan></tspan></text><g
       id="g25"><path
         id="path18"
         style="display:inline;opacity:1;fill:#e14a6d;fill-opacity:1;fill-rule:evenodd;stroke:none;stroke-width:0.194537;stroke-dasharray:none;stroke-opacity:1"
         d="m 250.125,35.875 a 214,214 0 0 0 -214,214 214,214 0 0 0 41.212891,125.36914 L 103.70117,341.49805 A 172.84727,172.91135 0 0 1 92.898438,321.70508 172.84727,172.91135 0 0 1 84.279297,298.58984 172.84727,172.91135 0 0 1 79.037109,274.48242 172.84727,172.91135 0 0 1 77.277344,249.875 a 172.84727,172.91135 0 0 1 1.759765,-24.60742 172.84727,172.91135 0 0 1 5.242188,-24.10742 172.84727,172.91135 0 0 1 8.619141,-23.11524 172.84727,172.91135 0 0 1 11.818362,-21.65234 172.84727,172.91135 0 0 1 14.77929,-19.75 172.84727,172.91135 0 0 1 17.4375,-17.44531 172.84727,172.91135 0 0 1 19.74219,-14.78516 172.84727,172.91135 0 0 1 21.64649,-11.822266 172.84727,172.91135 0 0 1 23.10546,-8.621094 172.84727,172.91135 0 0 1 24.09766,-5.244141 172.84727,172.91135 0 0 1 24.59961,-1.761718 172.84727,172.91135 0 0 1 8.48047,0.208984 172.84727,172.91135 0 0 1 8.46094,0.625 172.84727,172.91135 0 0 1 8.41992,1.039063 172.84727,172.91135 0 0 1 8.35937,1.449218 172.84727,172.91135 0 0 1 8.27735,1.861328 172.84727,172.91135 0 0 1 8.17773,2.261719 172.84727,172.91135 0 0 1 4.89844,1.621094 L 331.74023,52.056641 A 214,214 0 0 0 250.125,35.875 Z m 101.95703,25.880859 -25.75781,32.964844 a 172.84727,172.91135 0 0 1 5.28125,2.660156 172.84727,172.91135 0 0 1 2.9082,1.648438 L 360.0918,66.291016 a 214,214 0 0 0 -8.00977,-4.535157 z m 26.31055,16.847657 -25.30469,32.386714 a 172.84727,172.91135 0 0 1 0.002,0.002 172.84727,172.91135 0 0 1 6.6875,5.2207 172.84727,172.91135 0 0 1 0.46875,0.4043 l 25.32422,-32.412112 a 214,214 0 0 0 -7.17773,-5.601562 z m 23.50976,20.429687 -25.58398,32.746097 a 172.84727,172.91135 0 0 1 1.87891,1.97461 172.84727,172.91135 0 0 1 4.26757,4.94921 L 408.25,105.69922 a 214,214 0 0 0 -6.34766,-6.666017 z m 20.63672,24.109377 -26.57617,34.01758 a 172.84727,172.91135 0 0 1 2.41797,3.82031 172.84727,172.91135 0 0 1 4.18164,7.38476 172.84727,172.91135 0 0 1 3.81445,7.58008 172.84727,172.91135 0 0 1 3.4375,7.75977 172.84727,172.91135 0 0 1 3.05469,7.91797 172.84727,172.91135 0 0 1 2.66016,8.05859 172.84727,172.91135 0 0 1 2.26367,8.17969 172.84727,172.91135 0 0 1 1.85742,8.28125 172.84727,172.91135 0 0 1 1.45117,8.36133 172.84727,172.91135 0 0 1 1.03906,8.42187 172.84727,172.91135 0 0 1 0.62305,8.46484 172.84727,172.91135 0 0 1 0.20899,8.48438 172.84727,172.91135 0 0 1 -1.75977,24.60742 172.84727,172.91135 0 0 1 -5.24219,24.10742 172.84727,172.91135 0 0 1 -8.61914,23.11524 172.84727,172.91135 0 0 1 -11.81836,21.65234 172.84727,172.91135 0 0 1 -14.77929,19.75 172.84727,172.91135 0 0 1 -17.4375,17.44531 172.84727,172.91135 0 0 1 -19.74219,14.78516 172.84727,172.91135 0 0 1 -21.64649,11.82227 172.84727,172.91135 0 0 1 -23.10546,8.62109 172.84727,172.91135 0 0 1 -24.09766,5.24414 172.84727,172.91135 0 0 1 -24.59961,1.76172 172.84727,172.91135 0 0 1 -24.59961,-1.76172 172.84727,172.91135 0 0 1 -24.09766,-5.24414 172.84727,172.91135 0 0 1 -7.29882,-2.72266 l -26.46875,33.87891 a 214,214 0 0 0 82.46484,16.9375 214,214 0 0 0 214,-214 214,214 0 0 0 -41.58594,-126.73242 z M 117.16797,359.99609 91.380859,393.00195 a 214,214 0 0 0 6.486329,6.48633 l 25.443362,-32.56445 a 172.84727,172.91135 0 0 1 -3.81446,-3.81641 172.84727,172.91135 0 0 1 -2.32812,-3.11133 z m 22.06641,22.2793 -25.25391,32.32227 a 214,214 0 0 0 7.29101,5.45703 l 25.25196,-32.32031 a 172.84727,172.91135 0 0 1 -7.28906,-5.45899 z m 25.73046,17.58984 -25.58398,32.74219 a 214,214 0 0 0 8.10156,4.42383 l 25.58008,-32.74414 a 172.84727,172.91135 0 0 1 -8.09766,-4.42188 z" /><path
         style="display:inline;opacity:1;fill:#afe3fe;fill-opacity:1;fill-rule:evenodd;stroke:none;stroke-width:0.2;stroke-dasharray:none;stroke-opacity:1"
         d="M 279,112 254.5,232.5 H 328 L 221,388 245.5,267.5 H 172 Z"
         id="path134" /></g></g></svg>
