<?xml version="1.0" encoding="UTF-8" standalone="no"?>
<!-- Created with Inkscape (http://www.inkscape.org/) -->

<svg
   width="3566.4922"
   height="400"
   viewBox="0 0 3566.4922 400"
   version="1.1"
   id="svg1"
   xml:space="preserve"
   xmlns="http://www.w3.org/2000/svg"
   xmlns:svg="http://www.w3.org/2000/svg"><defs
     id="defs1"><rect
       x="543.21234"
       y="75.308983"
       width="1924.7"
       height="572.8421"
       id="rect2" /></defs><g
     id="layer2"
     style="display:none"
     transform="translate(-50.125,-49.875)"><path
       id="path39"
       style="display:inline;opacity:1;fill:#000000;fill-opacity:1;fill-rule:evenodd;stroke:none;stroke-width:0.194537;stroke-dasharray:none;stroke-opacity:1"
       d="m 250.125,49.875 a 200,200 0 0 0 -200,200 200,200 0 0 0 200,200 200,200 0 0 0 200,-200 200,200 0 0 0 -200,-200 z m 0,27.087891 a 172.84727,172.91135 0 0 1 8.48047,0.208984 172.84727,172.91135 0 0 1 8.46094,0.625 172.84727,172.91135 0 0 1 8.41992,1.039063 172.84727,172.91135 0 0 1 8.35937,1.449218 172.84727,172.91135 0 0 1 8.27735,1.861328 172.84727,172.91135 0 0 1 8.17773,2.261719 172.84727,172.91135 0 0 1 8.05469,2.664063 172.84727,172.91135 0 0 1 7.91601,3.052734 172.84727,172.91135 0 0 1 7.75586,3.439453 172.84727,172.91135 0 0 1 7.57813,3.816406 172.84727,172.91135 0 0 1 7.38086,4.183591 172.84727,172.91135 0 0 1 7.16797,4.53907 172.84727,172.91135 0 0 1 6.93554,4.88867 172.84727,172.91135 0 0 1 6.6875,5.2207 172.84727,172.91135 0 0 1 6.42383,5.54297 172.84727,172.91135 0 0 1 6.14453,5.85156 172.84727,172.91135 0 0 1 5.85157,6.14649 172.84727,172.91135 0 0 1 5.54101,6.42773 172.84727,172.91135 0 0 1 5.21875,6.68945 172.84727,172.91135 0 0 1 4.88477,6.93946 172.84727,172.91135 0 0 1 4.53906,7.16992 172.84727,172.91135 0 0 1 4.18164,7.38476 172.84727,172.91135 0 0 1 3.81445,7.58008 172.84727,172.91135 0 0 1 3.4375,7.75977 172.84727,172.91135 0 0 1 3.05469,7.91797 172.84727,172.91135 0 0 1 2.66016,8.05859 172.84727,172.91135 0 0 1 2.26367,8.17969 172.84727,172.91135 0 0 1 1.85742,8.28125 172.84727,172.91135 0 0 1 1.45117,8.36133 172.84727,172.91135 0 0 1 1.03906,8.42187 172.84727,172.91135 0 0 1 0.62305,8.46484 172.84727,172.91135 0 0 1 0.20899,8.48438 172.84727,172.91135 0 0 1 -1.75977,24.60742 172.84727,172.91135 0 0 1 -5.24219,24.10742 172.84727,172.91135 0 0 1 -8.61914,23.11524 172.84727,172.91135 0 0 1 -11.81836,21.65234 172.84727,172.91135 0 0 1 -14.77929,19.75 172.84727,172.91135 0 0 1 -17.4375,17.44531 172.84727,172.91135 0 0 1 -19.74219,14.78516 172.84727,172.91135 0 0 1 -21.64649,11.82227 172.84727,172.91135 0 0 1 -23.10546,8.62109 172.84727,172.91135 0 0 1 -24.09766,5.24414 172.84727,172.91135 0 0 1 -24.59961,1.76172 172.84727,172.91135 0 0 1 -24.59961,-1.76172 172.84727,172.91135 0 0 1 -24.09766,-5.24414 172.84727,172.91135 0 0 1 -23.10546,-8.62109 172.84727,172.91135 0 0 1 -21.64649,-11.82227 172.84727,172.91135 0 0 1 -19.74219,-14.78516 172.84727,172.91135 0 0 1 -17.4375,-17.44531 172.84727,172.91135 0 0 1 -14.77929,-19.75 172.84727,172.91135 0 0 1 -11.818362,-21.65234 172.84727,172.91135 0 0 1 -8.619141,-23.11524 172.84727,172.91135 0 0 1 -5.242188,-24.10742 172.84727,172.91135 0 0 1 -1.759765,-24.60742 172.84727,172.91135 0 0 1 1.759765,-24.60742 172.84727,172.91135 0 0 1 5.242188,-24.10742 172.84727,172.91135 0 0 1 8.619141,-23.11524 172.84727,172.91135 0 0 1 11.818362,-21.65234 172.84727,172.91135 0 0 1 14.77929,-19.75 172.84727,172.91135 0 0 1 17.4375,-17.44531 172.84727,172.91135 0 0 1 19.74219,-14.78516 172.84727,172.91135 0 0 1 21.64649,-11.822266 172.84727,172.91135 0 0 1 23.10546,-8.621094 172.84727,172.91135 0 0 1 24.09766,-5.244141 172.84727,172.91135 0 0 1 24.59961,-1.761718 z" /><rect
       style="display:inline;opacity:1;fill:#2f00eb;fill-opacity:0.71;fill-rule:evenodd;stroke:none;stroke-width:0.197661;stroke-dasharray:none;stroke-opacity:1"
       id="rect40"
       width="22"
       height="80"
       x="291.96457"
       y="193.34941"
       transform="rotate(38)" /><rect
       style="display:inline;fill:#2f00eb;fill-opacity:0.71;fill-rule:evenodd;stroke:none;stroke-width:0.197661;stroke-dasharray:none;stroke-opacity:1"
       id="rect40-1"
       width="22"
       height="80"
       x="385.28043"
       y="193.34941"
       transform="rotate(38)" /><rect
       style="display:inline;fill:#2f00eb;fill-opacity:0.71;fill-rule:evenodd;stroke:none;stroke-width:0.197661;stroke-dasharray:none;stroke-opacity:1"
       id="rect40-15"
       width="22"
       height="80"
       x="354.17514"
       y="193.34941"
       transform="rotate(38)" /><rect
       style="display:inline;fill:#2f00eb;fill-opacity:0.71;fill-rule:evenodd;stroke:none;stroke-width:0.197661;stroke-dasharray:none;stroke-opacity:1"
       id="rect40-7"
       width="22"
       height="80"
       x="323.06985"
       y="193.34941"
       transform="rotate(38)" /><path
       style="opacity:1;fill:#2f00eb;fill-opacity:0.71;fill-rule:evenodd;stroke:none;stroke-width:0.328128;stroke-dasharray:none;stroke-opacity:1"
       id="path46"
       d="M 375.10428,89.908817 A 203,203 0 0 1 453.125,249.875 h -203 z" /></g><g
     id="layer1"
     style="display:inline"
     transform="translate(-50.125,-49.875)"><path
       id="text2"
       style="font-style:normal;font-variant:normal;font-weight:500;font-stretch:normal;font-size:303.391px;font-family:Montserrat;-inkscape-font-specification:'Montserrat Medium';letter-spacing:-5px;word-spacing:-10px;white-space:pre;shape-inside:url(#rect2);display:inline;fill:#e14a6d;fill-opacity:1"
       d="m 1292.7581,139.35248 c -18.608,0 -33.9795,2.83213 -46.1151,8.49542 -11.9334,5.46104 -20.8326,12.84299 -26.6982,22.14697 -5.6633,9.10172 -8.4954,19.11328 -8.4954,30.03534 0,11.32659 2.3263,20.63093 6.9783,27.9123 4.652,7.07912 10.7192,12.7423 18.2028,16.98977 7.6859,4.24747 16.0805,7.78682 25.1822,10.61847 9.304,2.62938 18.5065,4.95574 27.6082,6.97834 9.1018,2.02261 17.3946,4.44969 24.8782,7.28133 7.6859,2.62939 13.8548,6.16874 18.5068,10.61847 4.8543,4.44973 7.2814,10.31544 7.2814,17.59682 0,6.27007 -1.8206,11.93325 -5.4613,16.98976 -3.6407,4.85425 -9.3039,8.69794 -16.9898,11.52959 -7.6859,2.83164 -17.6974,4.24717 -30.0353,4.24717 -13.5515,0 -26.5977,-2.32636 -39.1378,-6.97835 -12.5402,-4.65199 -22.855,-10.5177 -30.9454,-17.59682 l -11.2255,23.66514 c 8.4949,7.88816 20.1245,14.36036 34.8895,19.41687 14.7651,4.85425 30.2384,7.28133 46.4192,7.28133 18.6079,0 33.9794,-2.73033 46.1151,-8.19136 12.3379,-5.66329 21.4397,-13.04633 27.3052,-22.14805 5.8656,-9.30398 8.7984,-19.31554 8.7984,-30.03534 0,-11.12433 -2.3263,-20.22614 -6.9783,-27.30526 -4.652,-7.07911 -10.821,-12.74229 -18.5069,-16.98976 -7.4836,-4.24747 -15.8771,-7.6861 -25.1811,-10.31549 -9.1017,-2.62939 -18.2035,-4.95574 -27.3052,-6.97835 -9.1018,-2.22486 -17.4953,-4.65194 -25.1812,-7.28133 -7.4836,-2.62938 -13.6526,-6.16873 -18.5068,-10.61846 -4.652,-4.44973 -6.9784,-10.41616 -6.9784,-17.8998 0,-6.27007 1.7188,-11.93325 5.1572,-16.98976 3.6407,-5.05652 9.305,-9.10165 16.9909,-12.13555 7.6859,-3.03391 17.4949,-4.55124 29.4283,-4.55124 9.5062,0 19.3163,1.41552 29.4294,4.24717 10.113,2.62938 19.7206,6.97885 28.8223,13.04666 l 10.0114,-24.27218 c -8.8994,-6.06781 -19.4168,-10.71944 -31.5524,-13.95561 -12.1356,-3.23616 -24.3728,-4.85421 -36.7107,-4.85421 z m 453.5817,0 c -16.3831,0 -31.4513,2.73032 -45.205,8.19135 -13.7537,5.46104 -25.6877,13.14733 -35.8007,23.05809 -10.113,9.7085 -18.0008,21.13558 -23.6641,34.28251 -5.6632,13.14693 -8.4954,27.50795 -8.4954,43.08201 0,15.57405 2.8322,29.93508 8.4954,43.08201 5.6633,13.14693 13.5511,24.67582 23.6641,34.58658 10.113,9.7085 22.047,17.29298 35.8007,22.75401 13.9559,5.46103 29.0242,8.19136 45.205,8.19136 16.1809,0 31.0477,-2.62961 44.5991,-7.88838 13.7537,-5.46103 25.6866,-13.04551 35.7996,-22.75401 10.3153,-9.91076 18.203,-21.43965 23.664,-34.58658 5.6633,-13.14693 8.4955,-27.60868 8.4955,-43.38499 0,-15.77632 -2.8322,-30.23806 -8.4955,-43.38499 -5.461,-13.14693 -13.3487,-24.5751 -23.664,-34.2836 -10.113,-9.91076 -22.0459,-17.49524 -35.7996,-22.75402 -13.5514,-5.46103 -28.4182,-8.19135 -44.5991,-8.19135 z m 249.2414,0 c -16.1809,0 -31.1473,2.73032 -44.901,8.19135 -13.5515,5.25878 -25.3847,12.84326 -35.4977,22.75402 -10.113,9.7085 -18.0008,21.13667 -23.664,34.2836 -5.6633,13.14693 -8.4955,27.60867 -8.4955,43.38499 0,15.77631 2.8322,30.23806 8.4955,43.38499 5.6632,13.14693 13.4503,24.67582 23.361,34.58658 10.113,9.7085 21.9452,17.29298 35.4966,22.75401 13.7537,5.25877 28.7213,7.88838 44.9021,7.88838 16.5854,0 31.7554,-2.83213 45.5091,-8.49543 13.956,-5.66329 25.7881,-13.95499 35.4966,-24.87705 l -19.7209,-19.1139 c -8.0904,8.6972 -17.1923,15.16941 -27.3053,19.41688 -10.113,4.04521 -20.9336,6.06723 -32.4624,6.06723 -11.9334,0 -23.0583,-2.02202 -33.3736,-6.06723 -10.113,-4.04521 -18.9105,-9.70839 -26.3941,-16.98977 -7.4837,-7.28137 -13.3494,-15.87741 -17.5968,-25.78817 -4.0453,-10.11302 -6.0684,-21.03542 -6.0684,-32.76652 0,-11.73111 2.0231,-22.55169 6.0684,-32.46245 4.2474,-10.11303 10.1131,-18.81087 17.5968,-26.09225 7.4836,-7.28137 16.2811,-12.94455 26.3941,-16.98976 10.3153,-4.04521 21.4402,-6.06723 33.3736,-6.06723 11.5288,0 22.3494,2.12274 32.4624,6.37021 10.113,4.04521 19.2149,10.31597 27.3053,18.81091 l 19.7209,-19.11389 c -9.7085,-10.92207 -21.5406,-19.11304 -35.4966,-24.57408 -13.7537,-5.66329 -28.823,-8.49542 -45.2061,-8.49542 z m -1420.51184,2.42711 v 212.3737 h 30.33832 v -64.31894 h 52.48747 c 18.60796,0 34.48523,-2.93286 47.63216,-8.79841 13.14693,-6.06781 23.2592,-14.56313 30.33832,-25.48519 7.07912,-11.12433 10.61956,-24.37199 10.61956,-39.74378 0,-15.3718 -3.54044,-28.61946 -10.61956,-39.74378 -7.07912,-11.12433 -17.19139,-19.61964 -30.33832,-25.4852 -13.14693,-5.86555 -29.0242,-8.7984 -47.63216,-8.7984 z m 211.01357,0 v 212.3737 H 940.20601 V 327.75807 H 816.42234 V 259.19196 H 922.91217 V 233.40378 H 816.42234 v -65.22897 h 119.5365 v -26.39522 z m 198.27206,0 v 212.3737 h 30.33941 V 195.90511 l 127.4238,158.24818 h 24.8781 V 141.77959 H 1136.658 V 300.02777 L 1009.2331,141.77959 Z m 424.75941,0 v 212.3737 h 30.3394 v -94.65835 h 121.9636 v 94.65835 h 30.3383 v -212.3737 h -30.3383 v 91.32121 h -121.9636 v -91.32121 z m 705.5543,0 v 212.3737 h 30.3383 v -54.96471 l 38.9645,-39.50837 81.179,94.47308 h 35.4966 l -96.4043,-116.71486 90.6401,-95.65884 h -34.5866 l -115.2893,118.7736 v -118.7736 z m -368.3289,24.57516 c 11.7311,0 22.5517,2.02202 32.4625,6.06723 10.113,4.04521 18.8108,9.8102 26.0922,17.29383 7.4837,7.28138 13.2475,15.87741 17.2928,25.78818 4.2474,9.91076 6.3713,20.73134 6.3713,32.46245 0,11.7311 -2.1239,22.55169 -6.3713,32.46245 -4.0453,9.91076 -9.8091,18.60861 -17.2928,26.09224 -7.2814,7.28138 -15.9792,12.94456 -26.0922,16.98977 -9.9108,4.04521 -20.7314,6.06723 -32.4625,6.06723 -11.9333,0 -22.9565,-2.02202 -33.0695,-6.06723 -9.9107,-4.04521 -18.6075,-9.70839 -26.0911,-16.98977 -7.4837,-7.48363 -13.3494,-16.18148 -17.5969,-26.09224 -4.0452,-9.91076 -6.0683,-20.73135 -6.0683,-32.46245 0,-11.73111 2.0231,-22.55169 6.0683,-32.46245 4.2475,-9.91077 10.1132,-18.5068 17.5969,-25.78818 7.4836,-7.48363 16.1804,-13.24862 26.0911,-17.29383 10.113,-4.04521 21.1362,-6.06723 33.0695,-6.06723 z m -1140.93212,1.82006 h 51.57635 c 19.417,0 34.08128,4.14585 43.99204,12.43853 10.11302,8.29267 15.16971,20.02409 15.16971,35.19363 0,15.16953 -5.05669,26.90095 -15.16971,35.19363 -9.91076,8.29268 -24.57504,12.43852 -43.99204,12.43852 h -51.57635 z"
       transform="matrix(1.7920945,0,0,1.7920945,-506.35989,-194.37929)" /><g
       id="g134"><path
         id="path47"
         style="display:inline;opacity:1;fill:#e14a6d;fill-opacity:1;fill-rule:evenodd;stroke:none;stroke-width:0.194537;stroke-dasharray:none;stroke-opacity:1"
         d="m 250.125,49.875 c -110.45695,0 -200,89.54305 -200,200 0.136733,40.33129 12.463529,79.668 35.346275,112.85402 0.424759,0.61601 1.146318,0.63479 1.606995,0.0452 l 15.78877,-20.20849 c 0.46068,-0.58964 0.50896,-1.57971 0.11339,-2.21485 -3.738483,-6.00277 -7.10552,-12.22969 -10.081992,-18.64575 -3.41956,-7.48995 -6.299937,-15.21469 -8.619141,-23.11524 -2.318965,-7.90069 -4.070819,-15.957 -5.242188,-24.10742 -1.171518,-8.1501 -1.759602,-16.37349 -1.759765,-24.60742 1.63e-4,-8.23393 0.588247,-16.45732 1.759765,-24.60742 1.171369,-8.15042 2.923223,-16.20673 5.242188,-24.10742 2.319204,-7.90055 5.199581,-15.62529 8.619141,-23.11524 3.419095,-7.48973 7.368602,-14.72559 11.818362,-21.65234 4.45007,-6.92696 9.38907,-13.52709 14.77929,-19.75 5.38987,-6.22302 11.2172,-12.05296 17.4375,-17.44531 6.22043,-5.39234 12.81795,-10.3333 19.74219,-14.78516 6.9249,-4.451341 14.1588,-8.40215 21.64649,-11.822266 7.48681,-3.420351 15.20828,-6.301379 23.10546,-8.621094 7.89749,-2.31979 15.95054,-4.072296 24.09766,-5.244141 8.14748,-1.172449 16.36827,-1.761187 24.59961,-1.761718 2.82811,2.47e-4 5.65578,0.06993 8.48047,0.208984 2.825,0.13905 5.64616,0.347446 8.46094,0.625 2.81472,0.277388 5.6222,0.623847 8.41992,1.039063 2.79789,0.41458 5.58519,0.897798 8.35937,1.449218 2.77392,0.552601 5.53387,1.17323 8.27735,1.861328 2.744,0.686855 5.47073,1.440988 8.17773,2.261719 2.70628,0.821964 5.39199,1.710253 8.05469,2.664063 2.66324,0.952634 5.3027,1.970519 7.91601,3.052734 2.61303,1.082832 5.19909,2.229662 7.75586,3.439453 2.55688,1.209916 5.08368,2.482434 7.57813,3.816406 2.49413,1.333914 4.95516,2.728861 7.38086,4.183591 2.42609,1.45413 4.81613,2.96761 7.16797,4.53907 2.35148,1.57254 4.66403,3.20259 6.93554,4.88867 0.79898,0.60786 1.59264,1.22266 2.3809,1.84434 0.58753,0.46337 1.43396,0.36516 1.89463,-0.22448 l 15.01926,-19.224101 c 0.46067,-0.58964 0.35656,-1.441654 -0.23601,-1.898554 C 337.19307,64.536718 294.29034,49.896929 250.125,49.875 Z m 172.84233,201.35483 c -0.0611,7.78101 -0.64718,15.54954 -1.75444,23.25259 -1.17137,8.15042 -2.92322,16.20673 -5.24219,24.10742 -2.3192,7.90055 -5.19958,15.62529 -8.61914,23.11524 -3.41909,7.48973 -7.3686,14.72559 -11.81836,21.65234 -4.45007,6.92696 -9.38907,13.52709 -14.77929,19.75 -5.38987,6.22302 -11.2172,12.05296 -17.4375,17.44531 -6.22043,5.39234 -12.81795,10.3333 -19.74219,14.78516 -6.9249,4.45134 -14.1588,8.40215 -21.64649,11.82227 -7.48681,3.42035 -15.20828,6.30138 -23.10546,8.62109 -7.89749,2.31979 -15.95054,4.0723 -24.09766,5.24414 -8.14748,1.17245 -16.36827,1.76119 -24.59961,1.76172 -8.23134,-5.3e-4 -16.45213,-0.58927 -24.59961,-1.76172 -8.14712,-1.17184 -16.20017,-2.92435 -24.09766,-5.24414 -2.02649,-0.70432 -4.03966,-1.44632 -6.03846,-2.22559 -0.69715,-0.27179 -1.63381,-0.0191 -2.09447,0.57057 l -15.76538,20.17918 c -0.46066,0.58964 -0.2717,1.29489 0.42417,1.56996 22.98176,9.0845 47.45202,13.83263 72.17141,13.99963 110.00499,0 199.26687,-88.81177 199.99551,-198.64517 0.005,-0.74824 -0.60209,-1.35483 -1.35035,-1.35483 l -24.44266,0 c -0.74826,0 -1.3543,0.60659 -1.36017,1.35483 z m -306.63357,109.83383 -15.45853,19.78283 c -0.46072,0.5896 -0.41525,1.50624 0.10563,2.04343 1.50031,1.54728 3.02553,3.07021 4.57507,4.56819 0.53797,0.52007 1.35074,0.46039 1.81143,-0.12923 l 15.10903,-19.33745 c 0.46069,-0.58962 0.39831,-1.48949 -0.13475,-2.0146 -0.95965,-0.94534 -1.90823,-1.90187 -2.84555,-2.86941 -0.51305,-0.66982 -1.02119,-1.34339 -1.52438,-2.02065 -0.44625,-0.60062 -1.17723,-0.61271 -1.63795,-0.0231 z m 22.06646,22.27933 -14.6559,18.75738 c -0.46069,0.58962 -0.37298,1.46164 0.19957,1.94338 1.6323,1.37341 3.28647,2.72063 4.96187,4.04112 0.58767,0.46318 1.44033,0.35704 1.90099,-0.23261 l 14.8826,-19.05022 c 0.46066,-0.58965 0.33883,-1.41791 -0.26828,-1.8553 -1.73042,-1.24665 -3.43762,-2.52523 -5.12075,-3.83508 -0.59051,-0.45955 -1.43941,-0.35829 -1.9001,0.23133 z m 25.73043,17.58982 -14.91169,19.08359 c -0.46071,0.58961 -0.3227,1.39366 0.31128,1.79111 1.82562,1.14451 3.66962,2.25944 5.53127,3.34436 0.64649,0.37676 1.54628,0.20018 2.0069,-0.38949 l 15.16006,-19.40757 c 0.46062,-0.58967 0.29382,-1.34361 -0.36955,-1.68978 -1.92614,-1.00513 -3.83318,-2.0465 -5.72008,-3.12356 -0.64984,-0.37093 -1.54748,-0.19827 -2.00819,0.39134 z" /><path
         style="display:inline;opacity:1;fill:#afe3fe;fill-opacity:1;fill-rule:evenodd;stroke:none;stroke-width:0.2;stroke-dasharray:none;stroke-opacity:1"
         d="M 279,112 254.5,232.5 H 328 L 221,388 245.5,267.5 H 172 Z"
         id="path134" /></g></g></svg>
