<?xml version="1.0" encoding="UTF-8" standalone="no"?>
<!-- Created with Inkscape (http://www.inkscape.org/) -->

<svg
   width="3092.3984"
   height="389.29297"
   viewBox="0 0 3092.3984 389.29297"
   version="1.1"
   id="svg1"
   xml:space="preserve"
   xmlns="http://www.w3.org/2000/svg"
   xmlns:svg="http://www.w3.org/2000/svg"><defs
     id="defs1"><rect
       x="543.21234"
       y="75.308983"
       width="1924.7"
       height="572.8421"
       id="rect2" /></defs><g
     id="layer1"
     style="display:inline"
     transform="translate(-524.21875,-55.353523)"><path
       id="text2"
       style="font-style:normal;font-variant:normal;font-weight:500;font-stretch:normal;font-size:303.391px;font-family:Montserrat;-inkscape-font-specification:'Montserrat Medium';letter-spacing:-5px;word-spacing:-10px;white-space:pre;shape-inside:url(#rect2);display:inline;fill:#e14a6d;fill-opacity:1"
       d="m 1292.7581,139.35248 c -18.608,0 -33.9795,2.83213 -46.1151,8.49542 -11.9334,5.46104 -20.8326,12.84299 -26.6982,22.14697 -5.6633,9.10172 -8.4954,19.11328 -8.4954,30.03534 0,11.32659 2.3263,20.63093 6.9783,27.9123 4.652,7.07912 10.7192,12.7423 18.2028,16.98977 7.6859,4.24747 16.0805,7.78682 25.1822,10.61847 9.304,2.62938 18.5065,4.95574 27.6082,6.97834 9.1018,2.02261 17.3946,4.44969 24.8782,7.28133 7.6859,2.62939 13.8548,6.16874 18.5068,10.61847 4.8543,4.44973 7.2814,10.31544 7.2814,17.59682 0,6.27007 -1.8206,11.93325 -5.4613,16.98976 -3.6407,4.85425 -9.3039,8.69794 -16.9898,11.52959 -7.6859,2.83164 -17.6974,4.24717 -30.0353,4.24717 -13.5515,0 -26.5977,-2.32636 -39.1378,-6.97835 -12.5402,-4.65199 -22.855,-10.5177 -30.9454,-17.59682 l -11.2255,23.66514 c 8.4949,7.88816 20.1245,14.36036 34.8895,19.41687 14.7651,4.85425 30.2384,7.28133 46.4192,7.28133 18.6079,0 33.9794,-2.73033 46.1151,-8.19136 12.3379,-5.66329 21.4397,-13.04633 27.3052,-22.14805 5.8656,-9.30398 8.7984,-19.31554 8.7984,-30.03534 0,-11.12433 -2.3263,-20.22614 -6.9783,-27.30526 -4.652,-7.07911 -10.821,-12.74229 -18.5069,-16.98976 -7.4836,-4.24747 -15.8771,-7.6861 -25.1811,-10.31549 -9.1017,-2.62939 -18.2035,-4.95574 -27.3052,-6.97835 -9.1018,-2.22486 -17.4953,-4.65194 -25.1812,-7.28133 -7.4836,-2.62938 -13.6526,-6.16873 -18.5068,-10.61846 -4.652,-4.44973 -6.9784,-10.41616 -6.9784,-17.8998 0,-6.27007 1.7188,-11.93325 5.1572,-16.98976 3.6407,-5.05652 9.305,-9.10165 16.9909,-12.13555 7.6859,-3.03391 17.4949,-4.55124 29.4283,-4.55124 9.5062,0 19.3163,1.41552 29.4294,4.24717 10.113,2.62938 19.7206,6.97885 28.8223,13.04666 l 10.0114,-24.27218 c -8.8994,-6.06781 -19.4168,-10.71944 -31.5524,-13.95561 -12.1356,-3.23616 -24.3728,-4.85421 -36.7107,-4.85421 z m 453.5817,0 c -16.3831,0 -31.4513,2.73032 -45.205,8.19135 -13.7537,5.46104 -25.6877,13.14733 -35.8007,23.05809 -10.113,9.7085 -18.0008,21.13558 -23.6641,34.28251 -5.6632,13.14693 -8.4954,27.50795 -8.4954,43.08201 0,15.57405 2.8322,29.93508 8.4954,43.08201 5.6633,13.14693 13.5511,24.67582 23.6641,34.58658 10.113,9.7085 22.047,17.29298 35.8007,22.75401 13.9559,5.46103 29.0242,8.19136 45.205,8.19136 16.1809,0 31.0477,-2.62961 44.5991,-7.88838 13.7537,-5.46103 25.6866,-13.04551 35.7996,-22.75401 10.3153,-9.91076 18.203,-21.43965 23.664,-34.58658 5.6633,-13.14693 8.4955,-27.60868 8.4955,-43.38499 0,-15.77632 -2.8322,-30.23806 -8.4955,-43.38499 -5.461,-13.14693 -13.3487,-24.5751 -23.664,-34.2836 -10.113,-9.91076 -22.0459,-17.49524 -35.7996,-22.75402 -13.5514,-5.46103 -28.4182,-8.19135 -44.5991,-8.19135 z m 249.2414,0 c -16.1809,0 -31.1473,2.73032 -44.901,8.19135 -13.5515,5.25878 -25.3847,12.84326 -35.4977,22.75402 -10.113,9.7085 -18.0008,21.13667 -23.664,34.2836 -5.6633,13.14693 -8.4955,27.60867 -8.4955,43.38499 0,15.77631 2.8322,30.23806 8.4955,43.38499 5.6632,13.14693 13.4503,24.67582 23.361,34.58658 10.113,9.7085 21.9452,17.29298 35.4966,22.75401 13.7537,5.25877 28.7213,7.88838 44.9021,7.88838 16.5854,0 31.7554,-2.83213 45.5091,-8.49543 13.956,-5.66329 25.7881,-13.95499 35.4966,-24.87705 l -19.7209,-19.1139 c -8.0904,8.6972 -17.1923,15.16941 -27.3053,19.41688 -10.113,4.04521 -20.9336,6.06723 -32.4624,6.06723 -11.9334,0 -23.0583,-2.02202 -33.3736,-6.06723 -10.113,-4.04521 -18.9105,-9.70839 -26.3941,-16.98977 -7.4837,-7.28137 -13.3494,-15.87741 -17.5968,-25.78817 -4.0453,-10.11302 -6.0684,-21.03542 -6.0684,-32.76652 0,-11.73111 2.0231,-22.55169 6.0684,-32.46245 4.2474,-10.11303 10.1131,-18.81087 17.5968,-26.09225 7.4836,-7.28137 16.2811,-12.94455 26.3941,-16.98976 10.3153,-4.04521 21.4402,-6.06723 33.3736,-6.06723 11.5288,0 22.3494,2.12274 32.4624,6.37021 10.113,4.04521 19.2149,10.31597 27.3053,18.81091 l 19.7209,-19.11389 c -9.7085,-10.92207 -21.5406,-19.11304 -35.4966,-24.57408 -13.7537,-5.66329 -28.823,-8.49542 -45.2061,-8.49542 z m -1420.51184,2.42711 v 212.3737 h 30.33832 v -64.31894 h 52.48747 c 18.60796,0 34.48523,-2.93286 47.63216,-8.79841 13.14693,-6.06781 23.2592,-14.56313 30.33832,-25.48519 7.07912,-11.12433 10.61956,-24.37199 10.61956,-39.74378 0,-15.3718 -3.54044,-28.61946 -10.61956,-39.74378 -7.07912,-11.12433 -17.19139,-19.61964 -30.33832,-25.4852 -13.14693,-5.86555 -29.0242,-8.7984 -47.63216,-8.7984 z m 211.01357,0 v 212.3737 H 940.20601 V 327.75807 H 816.42234 V 259.19196 H 922.91217 V 233.40378 H 816.42234 v -65.22897 h 119.5365 v -26.39522 z m 198.27206,0 v 212.3737 h 30.33941 V 195.90511 l 127.4238,158.24818 h 24.8781 V 141.77959 H 1136.658 V 300.02777 L 1009.2331,141.77959 Z m 424.75941,0 v 212.3737 h 30.3394 v -94.65835 h 121.9636 v 94.65835 h 30.3383 v -212.3737 h -30.3383 v 91.32121 h -121.9636 v -91.32121 z m 705.5543,0 v 212.3737 h 30.3383 v -54.96471 l 38.9645,-39.50837 81.179,94.47308 h 35.4966 l -96.4043,-116.71486 90.6401,-95.65884 h -34.5866 l -115.2893,118.7736 v -118.7736 z m -368.3289,24.57516 c 11.7311,0 22.5517,2.02202 32.4625,6.06723 10.113,4.04521 18.8108,9.8102 26.0922,17.29383 7.4837,7.28138 13.2475,15.87741 17.2928,25.78818 4.2474,9.91076 6.3713,20.73134 6.3713,32.46245 0,11.7311 -2.1239,22.55169 -6.3713,32.46245 -4.0453,9.91076 -9.8091,18.60861 -17.2928,26.09224 -7.2814,7.28138 -15.9792,12.94456 -26.0922,16.98977 -9.9108,4.04521 -20.7314,6.06723 -32.4625,6.06723 -11.9333,0 -22.9565,-2.02202 -33.0695,-6.06723 -9.9107,-4.04521 -18.6075,-9.70839 -26.0911,-16.98977 -7.4837,-7.48363 -13.3494,-16.18148 -17.5969,-26.09224 -4.0452,-9.91076 -6.0683,-20.73135 -6.0683,-32.46245 0,-11.73111 2.0231,-22.55169 6.0683,-32.46245 4.2475,-9.91077 10.1132,-18.5068 17.5969,-25.78818 7.4836,-7.48363 16.1804,-13.24862 26.0911,-17.29383 10.113,-4.04521 21.1362,-6.06723 33.0695,-6.06723 z m -1140.93212,1.82006 h 51.57635 c 19.417,0 34.08128,4.14585 43.99204,12.43853 10.11302,8.29267 15.16971,20.02409 15.16971,35.19363 0,15.16953 -5.05669,26.90095 -15.16971,35.19363 -9.91076,8.29268 -24.57504,12.43852 -43.99204,12.43852 h -51.57635 z"
       transform="matrix(1.7920945,0,0,1.7920945,-506.35989,-194.37929)" /></g></svg>
