<?xml version="1.0" encoding="UTF-8" standalone="no"?>
<!-- Created with Inkscape (http://www.inkscape.org/) -->

<svg
   width="3700"
   height="500"
   viewBox="0 0 3700 500"
   version="1.1"
   id="svg1"
   xml:space="preserve"
   sodipodi:docname="InkscapeProject.svg"
   inkscape:version="1.3 (0e150ed6c4, 2023-07-21)"
   xmlns:inkscape="http://www.inkscape.org/namespaces/inkscape"
   xmlns:sodipodi="http://sodipodi.sourceforge.net/DTD/sodipodi-0.dtd"
   xmlns="http://www.w3.org/2000/svg"
   xmlns:svg="http://www.w3.org/2000/svg"><sodipodi:namedview
     id="namedview1"
     pagecolor="#ffffff"
     bordercolor="#000000"
     borderopacity="0.25"
     inkscape:showpageshadow="2"
     inkscape:pageopacity="0.0"
     inkscape:pagecheckerboard="0"
     inkscape:deskcolor="#d1d1d1"
     inkscape:document-units="px"
     inkscape:zoom="0.35355339"
     inkscape:cx="1742.3111"
     inkscape:cy="298.39906"
     inkscape:window-width="2560"
     inkscape:window-height="1369"
     inkscape:window-x="2552"
     inkscape:window-y="-8"
     inkscape:window-maximized="1"
     inkscape:current-layer="g26" /><defs
     id="defs1"><inkscape:path-effect
       effect="fillet_chamfer"
       id="path-effect58"
       is_visible="true"
       lpeversion="1"
       nodesatellites_param="F,0,0,1,0,0,0,1 @ F,0,0,1,0,0,0,1 @ F,0,0,1,0,1.3548423,0,1 @ F,0,1,1,0,1.3548423,0,1 @ F,0,0,1,0,0,0,1 @ F,0,0,1,0,0,0,1 @ F,0,0,1,0,0,0,1 @ F,0,0,1,0,0,0,1 @ F,0,0,1,0,0,0,1 @ F,0,0,1,0,0,0,1 @ F,0,0,1,0,0,0,1 @ F,0,0,1,0,0,0,1 @ F,0,0,1,0,0,0,1 @ F,0,0,1,0,0,0,1 @ F,0,0,1,0,0,0,1 @ F,0,0,1,0,0,0,1 @ F,0,0,1,0,0,0,1 @ F,0,0,1,0,0,0,1 @ F,0,0,1,0,0,0,1 @ F,0,0,1,0,0,0,1 @ F,0,0,1,0,0,0,1 @ F,0,0,1,0,0,0,1 @ F,0,0,1,0,0,0,1 @ F,0,0,1,0,0,0,1 @ F,0,0,1,0,0,0,1 @ F,0,0,1,0,0,0,1 @ F,0,0,1,0,0,0,1 @ F,0,0,1,0,0,0,1 @ F,0,0,1,0,0,0,1 @ F,0,0,1,0,0,0,1 @ F,0,0,1,0,0,0,1 @ F,0,0,1,0,0,0,1 @ F,0,1,1,0,1.3548423,0,1 @ F,0,1,1,0,1.3548423,0,1 | F,0,1,1,0,1.3548423,0,1 @ F,0,0,1,0,0,0,1 @ F,0,0,1,0,0,0,1 @ F,0,0,1,0,0,0,1 @ F,0,0,1,0,0,0,1 @ F,0,0,1,0,0,0,1 @ F,0,0,1,0,0,0,1 @ F,0,0,1,0,0,0,1 @ F,0,0,1,0,0,0,1 @ F,0,0,1,0,0,0,1 @ F,0,0,1,0,0,0,1 @ F,0,0,1,0,0,0,1 @ F,0,0,1,0,0,0,1 @ F,0,0,1,0,0,0,1 @ F,0,1,1,0,1.3548423,0,1 @ F,0,1,1,0,1.3548423,0,1 @ F,0,0,1,0,0,0,1 @ F,0,1,1,0,1.3548423,0,1 | F,0,1,1,0,1.3548423,0,1 @ F,0,1,1,0,1.3548423,0,1 @ F,0,1,1,0,1.3548423,0,1 @ F,0,1,1,0,1.3548423,0,1 @ F,0,0,1,0,0,0,1 | F,0,1,1,0,1.3548423,0,1 @ F,0,1,1,0,1.3548423,0,1 @ F,0,1,1,0,1.3548423,0,1 @ F,0,1,1,0,1.3548423,0,1 | F,0,1,1,0,1.3548423,0,1 @ F,0,1,1,0,1.3548423,0,1 @ F,0,1,1,0,1.3548423,0,1 @ F,0,1,1,0,1.3548423,0,1"
       radius="0"
       unit="px"
       method="auto"
       mode="F"
       chamfer_steps="1"
       flexible="false"
       use_knot_distance="true"
       apply_no_radius="true"
       apply_with_radius="true"
       only_selected="false"
       hide_knots="false" /><inkscape:path-effect
       effect="fillet_chamfer"
       id="path-effect57"
       is_visible="true"
       lpeversion="1"
       nodesatellites_param="F,0,0,1,0,0,0,1 @ F,0,0,1,0,0,0,1 @ F,0,0,1,0,0,0,1 @ F,0,0,1,0,0,0,1 @ F,0,0,1,0,0,0,1 @ F,0,0,1,0,0,0,1 @ F,0,0,1,0,0,0,1 @ F,0,0,1,0,0,0,1 @ F,0,0,1,0,0,0,1 @ F,0,0,1,0,0,0,1 @ F,0,0,1,0,0,0,1 @ F,0,0,1,0,0,0,1 @ F,0,0,1,0,0,0,1 @ F,0,0,1,0,0,0,1 @ F,0,0,1,0,0,0,1 @ F,0,0,1,0,0,0,1 @ F,0,0,1,0,0,0,1 @ F,0,0,1,0,0,0,1 @ F,0,0,1,0,0,0,1 @ F,0,0,1,0,0,0,1 @ F,0,0,1,0,0,0,1 @ F,0,0,1,0,0,0,1 @ F,0,0,1,0,0,0,1 @ F,0,0,1,0,0,0,1 @ F,0,0,1,0,0,0,1 @ F,0,0,1,0,0,0,1 @ F,0,0,1,0,0,0,1 @ F,0,0,1,0,0,0,1 @ F,0,0,1,0,0,0,1 @ F,0,0,1,0,0,0,1 @ F,0,0,1,0,0,0,1 @ F,0,0,1,0,0,0,1 @ F,0,0,1,0,0,0,1 @ F,0,0,1,0,0,0,1 | F,0,0,1,0,0,0,1 @ F,0,0,1,0,0,0,1 @ F,0,0,1,0,0,0,1 @ F,0,0,1,0,0,0,1 @ F,0,0,1,0,0,0,1 @ F,0,0,1,0,0,0,1 @ F,0,0,1,0,0,0,1 @ F,0,0,1,0,0,0,1 @ F,0,0,1,0,0,0,1 @ F,0,0,1,0,0,0,1 @ F,0,0,1,0,0,0,1 @ F,0,0,1,0,0,0,1 @ F,0,0,1,0,0,0,1 @ F,0,0,1,0,0,0,1 @ F,0,0,1,0,0,0,1 @ F,0,0,1,0,0,0,1 @ F,0,0,1,0,0,0,1 @ F,0,0,1,0,0,0,1 | F,0,0,1,0,0,0,1 @ F,0,0,1,0,0,0,1 @ F,0,0,1,0,0,0,1 @ F,0,0,1,0,0,0,1 @ F,0,0,1,0,0,0,1 | F,0,0,1,0,0,0,1 @ F,0,0,1,0,0,0,1 @ F,0,0,1,0,0,0,1 @ F,0,0,1,0,0,0,1 | F,0,0,1,0,0,0,1 @ F,0,0,1,0,0,0,1 @ F,0,0,1,0,0,0,1 @ F,0,0,1,0,0,0,1"
       radius="0"
       unit="px"
       method="auto"
       mode="F"
       chamfer_steps="1"
       flexible="false"
       use_knot_distance="true"
       apply_no_radius="true"
       apply_with_radius="true"
       only_selected="false"
       hide_knots="false" /><inkscape:path-effect
       effect="fillet_chamfer"
       id="path-effect56"
       is_visible="true"
       lpeversion="1"
       nodesatellites_param="F,0,0,1,0,0,0,1 @ F,0,0,1,0,0,0,1 @ F,0,0,1,0,0,0,1 @ F,0,0,1,0,0,0,1 @ F,0,0,1,0,0,0,1 @ F,0,0,1,0,0,0,1 @ F,0,0,1,0,0,0,1 @ F,0,0,1,0,0,0,1 @ F,0,0,1,0,0,0,1 @ F,0,0,1,0,0,0,1 @ F,0,0,1,0,0,0,1 @ F,0,0,1,0,0,0,1 @ F,0,0,1,0,0,0,1 @ F,0,0,1,0,0,0,1 @ F,0,0,1,0,0,0,1 @ F,0,0,1,0,0,0,1 @ F,0,0,1,0,0,0,1 @ F,0,0,1,0,0,0,1 @ F,0,0,1,0,0,0,1 @ F,0,0,1,0,0,0,1 @ F,0,0,1,0,0,0,1 @ F,0,0,1,0,0,0,1 @ F,0,0,1,0,0,0,1 @ F,0,0,1,0,0,0,1 @ F,0,0,1,0,0,0,1 @ F,0,0,1,0,0,0,1 @ F,0,0,1,0,0,0,1 @ F,0,0,1,0,0,0,1 @ F,0,0,1,0,0,0,1 @ F,0,0,1,0,0,0,1 @ F,0,0,1,0,0,0,1 @ F,0,0,1,0,0,0,1 @ F,0,0,1,0,0,0,1 @ F,0,0,1,0,0,0,1 | F,0,0,1,0,0,0,1 @ F,0,0,1,0,0,0,1 @ F,0,0,1,0,0,0,1 @ F,0,0,1,0,0,0,1 @ F,0,0,1,0,0,0,1 @ F,0,0,1,0,0,0,1 @ F,0,0,1,0,0,0,1 @ F,0,0,1,0,0,0,1 @ F,0,0,1,0,0,0,1 @ F,0,0,1,0,0,0,1 @ F,0,0,1,0,0,0,1 @ F,0,0,1,0,0,0,1 @ F,0,0,1,0,0,0,1 @ F,0,0,1,0,0,0,1 @ F,0,0,1,0,0,0,1 @ F,0,0,1,0,0,0,1 @ F,0,0,1,0,0,0,1 @ F,0,0,1,0,0,0,1 | F,0,0,1,0,0,0,1 @ F,0,0,1,0,0,0,1 @ F,0,0,1,0,0,0,1 @ F,0,0,1,0,0,0,1 @ F,0,0,1,0,0,0,1 | F,0,0,1,0,0,0,1 @ F,0,0,1,0,0,0,1 @ F,0,0,1,0,0,0,1 @ F,0,0,1,0,0,0,1 | F,0,0,1,0,0,0,1 @ F,0,0,1,0,0,0,1 @ F,0,0,1,0,0,0,1 @ F,0,0,1,0,0,0,1"
       radius="0"
       unit="px"
       method="auto"
       mode="F"
       chamfer_steps="1"
       flexible="false"
       use_knot_distance="true"
       apply_no_radius="true"
       apply_with_radius="true"
       only_selected="false"
       hide_knots="false" /><inkscape:path-effect
       effect="fillet_chamfer"
       id="path-effect55"
       is_visible="true"
       lpeversion="1"
       nodesatellites_param="F,0,0,1,0,0,0,1 @ F,0,0,1,0,0,0,1 @ F,0,0,1,0,0,0,1 @ F,0,0,1,0,0,0,1 @ F,0,0,1,0,0,0,1 @ F,0,0,1,0,0,0,1 @ F,0,0,1,0,0,0,1 @ F,0,0,1,0,0,0,1 @ F,0,0,1,0,0,0,1 @ F,0,0,1,0,0,0,1 @ F,0,0,1,0,0,0,1 @ F,0,0,1,0,0,0,1 @ F,0,0,1,0,0,0,1 @ F,0,0,1,0,0,0,1 @ F,0,0,1,0,0,0,1 @ F,0,0,1,0,0,0,1 @ F,0,0,1,0,0,0,1 @ F,0,0,1,0,0,0,1 @ F,0,0,1,0,0,0,1 @ F,0,0,1,0,0,0,1 @ F,0,0,1,0,0,0,1 @ F,0,0,1,0,0,0,1 @ F,0,0,1,0,0,0,1 @ F,0,0,1,0,0,0,1 @ F,0,0,1,0,0,0,1 @ F,0,0,1,0,0,0,1 @ F,0,0,1,0,0,0,1 @ F,0,0,1,0,0,0,1 @ F,0,0,1,0,0,0,1 @ F,0,0,1,0,0,0,1 @ F,0,0,1,0,0,0,1 @ F,0,0,1,0,0,0,1 @ F,0,0,1,0,0,0,1 @ F,0,0,1,0,0,0,1 | F,0,0,1,0,0,0,1 @ F,0,0,1,0,0,0,1 @ F,0,0,1,0,0,0,1 @ F,0,0,1,0,0,0,1 @ F,0,0,1,0,0,0,1 @ F,0,0,1,0,0,0,1 @ F,0,0,1,0,0,0,1 @ F,0,0,1,0,0,0,1 @ F,0,0,1,0,0,0,1 @ F,0,0,1,0,0,0,1 @ F,0,0,1,0,0,0,1 @ F,0,0,1,0,0,0,1 @ F,0,0,1,0,0,0,1 @ F,0,0,1,0,0,0,1 @ F,0,0,1,0,0,0,1 @ F,0,0,1,0,0,0,1 @ F,0,0,1,0,0,0,1 @ F,0,0,1,0,0,0,1 | F,0,0,1,0,0,0,1 @ F,0,0,1,0,0,0,1 @ F,0,0,1,0,0,0,1 @ F,0,0,1,0,0,0,1 @ F,0,0,1,0,0,0,1 | F,0,0,1,0,0,0,1 @ F,0,0,1,0,0,0,1 @ F,0,0,1,0,0,0,1 @ F,0,0,1,0,0,0,1 | F,0,0,1,0,0,0,1 @ F,0,0,1,0,0,0,1 @ F,0,0,1,0,0,0,1 @ F,0,0,1,0,0,0,1"
       radius="0"
       unit="px"
       method="auto"
       mode="F"
       chamfer_steps="1"
       flexible="false"
       use_knot_distance="true"
       apply_no_radius="true"
       apply_with_radius="true"
       only_selected="false"
       hide_knots="false" /><inkscape:path-effect
       effect="fillet_chamfer"
       id="path-effect54"
       is_visible="true"
       lpeversion="1"
       nodesatellites_param="F,0,0,1,0,0,0,1 @ F,0,0,1,0,0,0,1 @ F,0,0,1,0,0,0,1 @ F,0,0,1,0,0,0,1 @ F,0,0,1,0,0,0,1 @ F,0,0,1,0,0,0,1 @ F,0,0,1,0,0,0,1 @ F,0,0,1,0,0,0,1 @ F,0,0,1,0,0,0,1 @ F,0,0,1,0,0,0,1 @ F,0,0,1,0,0,0,1 @ F,0,0,1,0,0,0,1 @ F,0,0,1,0,0,0,1 @ F,0,0,1,0,0,0,1 @ F,0,0,1,0,0,0,1 @ F,0,0,1,0,0,0,1 @ F,0,0,1,0,0,0,1 @ F,0,0,1,0,0,0,1 @ F,0,0,1,0,0,0,1 @ F,0,0,1,0,0,0,1 @ F,0,0,1,0,0,0,1 @ F,0,0,1,0,0,0,1 @ F,0,0,1,0,0,0,1 @ F,0,0,1,0,0,0,1 @ F,0,0,1,0,0,0,1 @ F,0,0,1,0,0,0,1 @ F,0,0,1,0,0,0,1 @ F,0,0,1,0,0,0,1 @ F,0,0,1,0,0,0,1 @ F,0,0,1,0,0,0,1 @ F,0,0,1,0,0,0,1 @ F,0,0,1,0,0,0,1 @ F,0,0,1,0,0,0,1 @ F,0,0,1,0,0,0,1 | F,0,0,1,0,0,0,1 @ F,0,0,1,0,0,0,1 @ F,0,0,1,0,0,0,1 @ F,0,0,1,0,0,0,1 @ F,0,0,1,0,0,0,1 @ F,0,0,1,0,0,0,1 @ F,0,0,1,0,0,0,1 @ F,0,0,1,0,0,0,1 @ F,0,0,1,0,0,0,1 @ F,0,0,1,0,0,0,1 @ F,0,0,1,0,0,0,1 @ F,0,0,1,0,0,0,1 @ F,0,0,1,0,0,0,1 @ F,0,0,1,0,0,0,1 @ F,0,0,1,0,0,0,1 @ F,0,0,1,0,0,0,1 @ F,0,0,1,0,0,0,1 @ F,0,0,1,0,0,0,1 | F,0,0,1,0,0,0,1 @ F,0,0,1,0,0,0,1 @ F,0,0,1,0,0,0,1 @ F,0,0,1,0,0,0,1 @ F,0,0,1,0,0,0,1 | F,0,0,1,0,0,0,1 @ F,0,0,1,0,0,0,1 @ F,0,0,1,0,0,0,1 @ F,0,0,1,0,0,0,1 | F,0,0,1,0,0,0,1 @ F,0,0,1,0,0,0,1 @ F,0,0,1,0,0,0,1 @ F,0,0,1,0,0,0,1"
       radius="0"
       unit="px"
       method="auto"
       mode="F"
       chamfer_steps="1"
       flexible="false"
       use_knot_distance="true"
       apply_no_radius="true"
       apply_with_radius="true"
       only_selected="false"
       hide_knots="false" /><inkscape:path-effect
       effect="fillet_chamfer"
       id="path-effect52"
       is_visible="true"
       lpeversion="1"
       nodesatellites_param="F,0,0,1,0,0,0,1 @ F,0,0,1,0,0,0,1 @ F,0,0,1,0,0,0,1 @ F,0,0,1,0,0,0,1 @ F,0,0,1,0,0,0,1 @ F,0,0,1,0,0,0,1 @ F,0,0,1,0,0,0,1 @ F,0,0,1,0,0,0,1 @ F,0,0,1,0,0,0,1 @ F,0,0,1,0,0,0,1 @ F,0,0,1,0,0,0,1 @ F,0,0,1,0,0,0,1 @ F,0,0,1,0,0,0,1 @ F,0,0,1,0,0,0,1 @ F,0,0,1,0,0,0,1 @ F,0,0,1,0,0,0,1 @ F,0,0,1,0,0,0,1 @ F,0,0,1,0,0,0,1 @ F,0,0,1,0,0,0,1 @ F,0,0,1,0,0,0,1 @ F,0,0,1,0,0,0,1 @ F,0,0,1,0,0,0,1 @ F,0,0,1,0,0,0,1 @ F,0,0,1,0,0,0,1 @ F,0,0,1,0,0,0,1 @ F,0,0,1,0,0,0,1 @ F,0,0,1,0,0,0,1 @ F,0,0,1,0,0,0,1 @ F,0,0,1,0,0,0,1 @ F,0,0,1,0,0,0,1 @ F,0,0,1,0,0,0,1 @ F,0,0,1,0,0,0,1 @ F,0,0,1,0,0,0,1 @ F,0,0,1,0,0,0,1 | F,0,0,1,0,0,0,1 @ F,0,0,1,0,0,0,1 @ F,0,0,1,0,0,0,1 @ F,0,0,1,0,0,0,1 @ F,0,0,1,0,0,0,1 @ F,0,0,1,0,0,0,1 @ F,0,0,1,0,0,0,1 @ F,0,0,1,0,0,0,1 @ F,0,0,1,0,0,0,1 @ F,0,0,1,0,0,0,1 @ F,0,0,1,0,0,0,1 @ F,0,0,1,0,0,0,1 @ F,0,0,1,0,0,0,1 @ F,0,0,1,0,0,0,1 @ F,0,0,1,0,0,0,1 @ F,0,0,1,0,0,0,1 @ F,0,0,1,0,0,0,1 @ F,0,0,1,0,0,0,1 | F,0,0,1,0,0,0,1 @ F,0,0,1,0,0,0,1 @ F,0,0,1,0,0,0,1 @ F,0,0,1,0,0,0,1 @ F,0,0,1,0,0,0,1 | F,0,0,1,0,0,0,1 @ F,0,0,1,0,0,0,1 @ F,0,0,1,0,0,0,1 @ F,0,0,1,0,0,0,1 | F,0,0,1,0,0,0,1 @ F,0,0,1,0,0,0,1 @ F,0,0,1,0,0,0,1 @ F,0,0,1,0,0,0,1"
       radius="0"
       unit="px"
       method="auto"
       mode="F"
       chamfer_steps="1"
       flexible="false"
       use_knot_distance="true"
       apply_no_radius="true"
       apply_with_radius="true"
       only_selected="false"
       hide_knots="false" /><inkscape:path-effect
       effect="fillet_chamfer"
       id="path-effect51"
       is_visible="true"
       lpeversion="1"
       nodesatellites_param="F,0,0,1,0,0,0,1 @ F,0,0,1,0,0,0,1 @ F,0,0,1,0,0,0,1 @ F,0,0,1,0,0,0,1 @ F,0,0,1,0,0,0,1 @ F,0,0,1,0,0,0,1 @ F,0,0,1,0,0,0,1 @ F,0,0,1,0,0,0,1 @ F,0,0,1,0,0,0,1 @ F,0,0,1,0,0,0,1 @ F,0,0,1,0,0,0,1 @ F,0,0,1,0,0,0,1 @ F,0,0,1,0,0,0,1 @ F,0,0,1,0,0,0,1 @ F,0,0,1,0,0,0,1 @ F,0,0,1,0,0,0,1 @ F,0,0,1,0,0,0,1 @ F,0,0,1,0,0,0,1 @ F,0,0,1,0,0,0,1 @ F,0,0,1,0,0,0,1 @ F,0,0,1,0,0,0,1 @ F,0,0,1,0,0,0,1 @ F,0,0,1,0,0,0,1 @ F,0,0,1,0,0,0,1 @ F,0,0,1,0,0,0,1 @ F,0,0,1,0,0,0,1 @ F,0,0,1,0,0,0,1 @ F,0,0,1,0,0,0,1 @ F,0,0,1,0,0,0,1 @ F,0,0,1,0,0,0,1 @ F,0,0,1,0,0,0,1 @ F,0,0,1,0,0,0,1 @ F,0,0,1,0,0,0,1 @ F,0,0,1,0,0,0,1 | F,0,0,1,0,0,0,1 @ F,0,0,1,0,0,0,1 @ F,0,0,1,0,0,0,1 @ F,0,0,1,0,0,0,1 @ F,0,0,1,0,0,0,1 @ F,0,0,1,0,0,0,1 @ F,0,0,1,0,0,0,1 @ F,0,0,1,0,0,0,1 @ F,0,0,1,0,0,0,1 @ F,0,0,1,0,0,0,1 @ F,0,0,1,0,0,0,1 @ F,0,0,1,0,0,0,1 @ F,0,0,1,0,0,0,1 @ F,0,0,1,0,0,0,1 @ F,0,0,1,0,0,0,1 @ F,0,0,1,0,0,0,1 @ F,0,0,1,0,0,0,1 @ F,0,0,1,0,0,0,1 | F,0,0,1,0,0,0,1 @ F,0,0,1,0,0,0,1 @ F,0,0,1,0,0,0,1 @ F,0,0,1,0,0,0,1 @ F,0,0,1,0,0,0,1 | F,0,0,1,0,0,0,1 @ F,0,0,1,0,0,0,1 @ F,0,0,1,0,0,0,1 @ F,0,0,1,0,0,0,1 | F,0,0,1,0,0,0,1 @ F,0,0,1,0,0,0,1 @ F,0,0,1,0,0,0,1 @ F,0,0,1,0,0,0,1"
       radius="0"
       unit="px"
       method="auto"
       mode="F"
       chamfer_steps="1"
       flexible="false"
       use_knot_distance="true"
       apply_no_radius="true"
       apply_with_radius="true"
       only_selected="false"
       hide_knots="false" /><inkscape:path-effect
       effect="fillet_chamfer"
       id="path-effect38"
       is_visible="true"
       lpeversion="1"
       nodesatellites_param="F,0,1,1,0,1.5878001,0,1 @ F,0,0,1,0,1.5878001,0,1 @ F,0,1,1,0,1.5878001,0,1 @ F,0,1,1,0,1.5878001,0,1"
       radius="0"
       unit="px"
       method="auto"
       mode="F"
       chamfer_steps="1"
       flexible="false"
       use_knot_distance="true"
       apply_no_radius="true"
       apply_with_radius="true"
       only_selected="false"
       hide_knots="false" /><inkscape:path-effect
       effect="fillet_chamfer"
       id="path-effect37"
       is_visible="true"
       lpeversion="1"
       nodesatellites_param="F,0,1,1,0,1.6654505,0,1 @ F,0,1,1,0,1.6654505,0,1 @ F,0,0,1,0,1.6654505,0,1 @ F,0,1,1,0,1.6654505,0,1"
       radius="0"
       unit="px"
       method="auto"
       mode="F"
       chamfer_steps="1"
       flexible="false"
       use_knot_distance="true"
       apply_no_radius="true"
       apply_with_radius="true"
       only_selected="false"
       hide_knots="false" /><inkscape:path-effect
       effect="fillet_chamfer"
       id="path-effect36"
       is_visible="true"
       lpeversion="1"
       nodesatellites_param="F,0,1,1,0,1.7554892,0,1 @ F,0,1,1,0,1.7554892,0,1 @ F,0,0,1,0,1.7554892,0,1 @ F,0,1,1,0,1.7554892,0,1"
       radius="0"
       unit="px"
       method="auto"
       mode="F"
       chamfer_steps="1"
       flexible="false"
       use_knot_distance="true"
       apply_no_radius="true"
       apply_with_radius="true"
       only_selected="false"
       hide_knots="false" /><inkscape:path-effect
       effect="fillet_chamfer"
       id="path-effect34"
       is_visible="true"
       lpeversion="1"
       nodesatellites_param="F,0,1,1,0,1.5231182,0,1 @ F,0,1,1,0,1.5231182,0,1 @ F,0,0,1,0,1.5231182,0,1 @ F,0,1,1,0,1.5231182,0,1"
       radius="0"
       unit="px"
       method="auto"
       mode="F"
       chamfer_steps="1"
       flexible="false"
       use_knot_distance="true"
       apply_no_radius="true"
       apply_with_radius="true"
       only_selected="false"
       hide_knots="false" /><inkscape:path-effect
       effect="fillet_chamfer"
       id="path-effect33"
       is_visible="true"
       lpeversion="1"
       nodesatellites_param="F,0,0,1,0,1.4703495,0,1 @ F,0,1,1,0,1.4703495,0,1 @ F,0,1,1,0,1.4703495,0,1 @ F,0,1,1,0,1.4703495,0,1"
       radius="0"
       unit="px"
       method="auto"
       mode="F"
       chamfer_steps="1"
       flexible="false"
       use_knot_distance="true"
       apply_no_radius="true"
       apply_with_radius="true"
       only_selected="false"
       hide_knots="false" /><inkscape:path-effect
       effect="fillet_chamfer"
       id="path-effect32"
       is_visible="true"
       lpeversion="1"
       nodesatellites_param="F,0,0,1,0,0,0,1 @ F,0,0,1,0,0,0,1 @ F,0,0,1,0,0,0,1 @ F,0,0,1,0,0,0,1"
       radius="0"
       unit="px"
       method="auto"
       mode="F"
       chamfer_steps="1"
       flexible="false"
       use_knot_distance="true"
       apply_no_radius="true"
       apply_with_radius="true"
       only_selected="false"
       hide_knots="false" /><inkscape:path-effect
       effect="fillet_chamfer"
       id="path-effect31"
       is_visible="true"
       lpeversion="1"
       nodesatellites_param="F,0,0,1,0,0,0,1 @ F,0,0,1,0,0,0,1 @ F,0,0,1,0,0,0,1 @ F,0,0,1,0,0,0,1"
       radius="0"
       unit="px"
       method="auto"
       mode="F"
       chamfer_steps="1"
       flexible="false"
       use_knot_distance="true"
       apply_no_radius="true"
       apply_with_radius="true"
       only_selected="false"
       hide_knots="false" /><linearGradient
       id="swatch14"><stop
         style="stop-color:#000000;stop-opacity:1;"
         offset="0"
         id="stop14" /></linearGradient><linearGradient
       id="swatch7"><stop
         style="stop-color:#020202;stop-opacity:1;"
         offset="0"
         id="stop7" /></linearGradient><rect
       x="543.21234"
       y="75.308983"
       width="1924.7"
       height="572.8421"
       id="rect2" /><filter
       id="mask-powermask-path-effect113_inverse"
       inkscape:label="filtermask-powermask-path-effect113"
       style="color-interpolation-filters:sRGB"
       height="100"
       width="100"
       x="-50"
       y="-50"><feColorMatrix
         id="mask-powermask-path-effect113_primitive1"
         values="1"
         type="saturate"
         result="fbSourceGraphic" /><feColorMatrix
         id="mask-powermask-path-effect113_primitive2"
         values="-1 0 0 0 1 0 -1 0 0 1 0 0 -1 0 1 0 0 0 1 0 "
         in="fbSourceGraphic" /></filter><filter
       id="mask-powermask-path-effect114_inverse"
       inkscape:label="filtermask-powermask-path-effect114"
       style="color-interpolation-filters:sRGB"
       height="100"
       width="100"
       x="-50"
       y="-50"><feColorMatrix
         id="mask-powermask-path-effect114_primitive1"
         values="1"
         type="saturate"
         result="fbSourceGraphic" /><feColorMatrix
         id="mask-powermask-path-effect114_primitive2"
         values="-1 0 0 0 1 0 -1 0 0 1 0 0 -1 0 1 0 0 0 1 0 "
         in="fbSourceGraphic" /></filter><filter
       id="mask-powermask-path-effect115_inverse"
       inkscape:label="filtermask-powermask-path-effect115"
       style="color-interpolation-filters:sRGB"
       height="100"
       width="100"
       x="-50"
       y="-50"><feColorMatrix
         id="mask-powermask-path-effect115_primitive1"
         values="1"
         type="saturate"
         result="fbSourceGraphic" /><feColorMatrix
         id="mask-powermask-path-effect115_primitive2"
         values="-1 0 0 0 1 0 -1 0 0 1 0 0 -1 0 1 0 0 0 1 0 "
         in="fbSourceGraphic" /></filter><filter
       id="mask-powermask-path-effect116_inverse"
       inkscape:label="filtermask-powermask-path-effect116"
       style="color-interpolation-filters:sRGB"
       height="100"
       width="100"
       x="-50"
       y="-50"><feColorMatrix
         id="mask-powermask-path-effect116_primitive1"
         values="1"
         type="saturate"
         result="fbSourceGraphic" /><feColorMatrix
         id="mask-powermask-path-effect116_primitive2"
         values="-1 0 0 0 1 0 -1 0 0 1 0 0 -1 0 1 0 0 0 1 0 "
         in="fbSourceGraphic" /></filter><filter
       id="mask-powermask-path-effect117_inverse"
       inkscape:label="filtermask-powermask-path-effect117"
       style="color-interpolation-filters:sRGB"
       height="100"
       width="100"
       x="-50"
       y="-50"><feColorMatrix
         id="mask-powermask-path-effect117_primitive1"
         values="1"
         type="saturate"
         result="fbSourceGraphic" /><feColorMatrix
         id="mask-powermask-path-effect117_primitive2"
         values="-1 0 0 0 1 0 -1 0 0 1 0 0 -1 0 1 0 0 0 1 0 "
         in="fbSourceGraphic" /></filter><filter
       id="mask-powermask-path-effect121_inverse"
       inkscape:label="filtermask-powermask-path-effect121"
       style="color-interpolation-filters:sRGB"
       height="100"
       width="100"
       x="-50"
       y="-50"><feColorMatrix
         id="mask-powermask-path-effect121_primitive1"
         values="1"
         type="saturate"
         result="fbSourceGraphic" /><feColorMatrix
         id="mask-powermask-path-effect121_primitive2"
         values="-1 0 0 0 1 0 -1 0 0 1 0 0 -1 0 1 0 0 0 1 0 "
         in="fbSourceGraphic" /></filter><filter
       id="mask-powermask-path-effect122_inverse"
       inkscape:label="filtermask-powermask-path-effect122"
       style="color-interpolation-filters:sRGB"
       height="100"
       width="100"
       x="-50"
       y="-50"><feColorMatrix
         id="mask-powermask-path-effect122_primitive1"
         values="1"
         type="saturate"
         result="fbSourceGraphic" /><feColorMatrix
         id="mask-powermask-path-effect122_primitive2"
         values="-1 0 0 0 1 0 -1 0 0 1 0 0 -1 0 1 0 0 0 1 0 "
         in="fbSourceGraphic" /></filter><filter
       id="mask-powermask-path-effect123_inverse"
       inkscape:label="filtermask-powermask-path-effect123"
       style="color-interpolation-filters:sRGB"
       height="100"
       width="100"
       x="-50"
       y="-50"><feColorMatrix
         id="mask-powermask-path-effect123_primitive1"
         values="1"
         type="saturate"
         result="fbSourceGraphic" /><feColorMatrix
         id="mask-powermask-path-effect123_primitive2"
         values="-1 0 0 0 1 0 -1 0 0 1 0 0 -1 0 1 0 0 0 1 0 "
         in="fbSourceGraphic" /></filter><filter
       id="mask-powermask-path-effect124_inverse"
       inkscape:label="filtermask-powermask-path-effect124"
       style="color-interpolation-filters:sRGB"
       height="100"
       width="100"
       x="-50"
       y="-50"><feColorMatrix
         id="mask-powermask-path-effect124_primitive1"
         values="1"
         type="saturate"
         result="fbSourceGraphic" /><feColorMatrix
         id="mask-powermask-path-effect124_primitive2"
         values="-1 0 0 0 1 0 -1 0 0 1 0 0 -1 0 1 0 0 0 1 0 "
         in="fbSourceGraphic" /></filter><filter
       id="mask-powermask-path-effect125_inverse"
       inkscape:label="filtermask-powermask-path-effect125"
       style="color-interpolation-filters:sRGB"
       height="100"
       width="100"
       x="-50"
       y="-50"><feColorMatrix
         id="mask-powermask-path-effect125_primitive1"
         values="1"
         type="saturate"
         result="fbSourceGraphic" /><feColorMatrix
         id="mask-powermask-path-effect125_primitive2"
         values="-1 0 0 0 1 0 -1 0 0 1 0 0 -1 0 1 0 0 0 1 0 "
         in="fbSourceGraphic" /></filter><rect
       x="543.21234"
       y="75.308983"
       width="1924.7"
       height="572.8421"
       id="rect26" /></defs><g
     inkscape:groupmode="layer"
     id="layer2"
     inkscape:label="Pre-Bake"
     style="display:none"><path
       id="path39"
       style="display:inline;opacity:1;fill:#e14a6d;fill-opacity:1;fill-rule:evenodd;stroke:none;stroke-width:0.194537;stroke-dasharray:none;stroke-opacity:1"
       d="m 250.125,49.875 a 200,200 0 0 0 -200,200 200,200 0 0 0 200,200 200,200 0 0 0 200,-200 200,200 0 0 0 -200,-200 z m 0,27.087891 a 172.84727,172.91135 0 0 1 8.48047,0.208984 172.84727,172.91135 0 0 1 8.46094,0.625 172.84727,172.91135 0 0 1 8.41992,1.039063 172.84727,172.91135 0 0 1 8.35937,1.449218 172.84727,172.91135 0 0 1 8.27735,1.861328 172.84727,172.91135 0 0 1 8.17773,2.261719 172.84727,172.91135 0 0 1 8.05469,2.664063 172.84727,172.91135 0 0 1 7.91601,3.052734 172.84727,172.91135 0 0 1 7.75586,3.439453 172.84727,172.91135 0 0 1 7.57813,3.816406 172.84727,172.91135 0 0 1 7.38086,4.183591 172.84727,172.91135 0 0 1 7.16797,4.53907 172.84727,172.91135 0 0 1 6.93554,4.88867 172.84727,172.91135 0 0 1 6.6875,5.2207 172.84727,172.91135 0 0 1 6.42383,5.54297 172.84727,172.91135 0 0 1 6.14453,5.85156 172.84727,172.91135 0 0 1 5.85157,6.14649 172.84727,172.91135 0 0 1 5.54101,6.42773 172.84727,172.91135 0 0 1 5.21875,6.68945 172.84727,172.91135 0 0 1 4.88477,6.93946 172.84727,172.91135 0 0 1 4.53906,7.16992 172.84727,172.91135 0 0 1 4.18164,7.38476 172.84727,172.91135 0 0 1 3.81445,7.58008 172.84727,172.91135 0 0 1 3.4375,7.75977 172.84727,172.91135 0 0 1 3.05469,7.91797 172.84727,172.91135 0 0 1 2.66016,8.05859 172.84727,172.91135 0 0 1 2.26367,8.17969 172.84727,172.91135 0 0 1 1.85742,8.28125 172.84727,172.91135 0 0 1 1.45117,8.36133 172.84727,172.91135 0 0 1 1.03906,8.42187 172.84727,172.91135 0 0 1 0.62305,8.46484 172.84727,172.91135 0 0 1 0.20899,8.48438 172.84727,172.91135 0 0 1 -1.75977,24.60742 172.84727,172.91135 0 0 1 -5.24219,24.10742 172.84727,172.91135 0 0 1 -8.61914,23.11524 172.84727,172.91135 0 0 1 -11.81836,21.65234 172.84727,172.91135 0 0 1 -14.77929,19.75 172.84727,172.91135 0 0 1 -17.4375,17.44531 172.84727,172.91135 0 0 1 -19.74219,14.78516 172.84727,172.91135 0 0 1 -21.64649,11.82227 172.84727,172.91135 0 0 1 -23.10546,8.62109 172.84727,172.91135 0 0 1 -24.09766,5.24414 172.84727,172.91135 0 0 1 -24.59961,1.76172 172.84727,172.91135 0 0 1 -24.59961,-1.76172 172.84727,172.91135 0 0 1 -24.09766,-5.24414 172.84727,172.91135 0 0 1 -23.10546,-8.62109 172.84727,172.91135 0 0 1 -21.64649,-11.82227 172.84727,172.91135 0 0 1 -19.74219,-14.78516 172.84727,172.91135 0 0 1 -17.4375,-17.44531 172.84727,172.91135 0 0 1 -14.77929,-19.75 172.84727,172.91135 0 0 1 -11.818362,-21.65234 172.84727,172.91135 0 0 1 -8.619141,-23.11524 172.84727,172.91135 0 0 1 -5.242188,-24.10742 172.84727,172.91135 0 0 1 -1.759765,-24.60742 172.84727,172.91135 0 0 1 1.759765,-24.60742 172.84727,172.91135 0 0 1 5.242188,-24.10742 172.84727,172.91135 0 0 1 8.619141,-23.11524 172.84727,172.91135 0 0 1 11.818362,-21.65234 172.84727,172.91135 0 0 1 14.77929,-19.75 172.84727,172.91135 0 0 1 17.4375,-17.44531 172.84727,172.91135 0 0 1 19.74219,-14.78516 172.84727,172.91135 0 0 1 21.64649,-11.822266 172.84727,172.91135 0 0 1 23.10546,-8.621094 172.84727,172.91135 0 0 1 24.09766,-5.244141 172.84727,172.91135 0 0 1 24.59961,-1.761718 z" /><rect
       style="display:inline;opacity:1;fill:#2f00eb;fill-opacity:0.71;fill-rule:evenodd;stroke:none;stroke-width:0.197661;stroke-dasharray:none;stroke-opacity:1"
       id="rect40"
       width="22"
       height="80"
       x="291.96457"
       y="193.34941"
       transform="rotate(38)" /><rect
       style="display:inline;fill:#2f00eb;fill-opacity:0.71;fill-rule:evenodd;stroke:none;stroke-width:0.197661;stroke-dasharray:none;stroke-opacity:1"
       id="rect40-1"
       width="22"
       height="80"
       x="385.28043"
       y="193.34941"
       transform="rotate(38)" /><rect
       style="display:inline;fill:#2f00eb;fill-opacity:0.71;fill-rule:evenodd;stroke:none;stroke-width:0.197661;stroke-dasharray:none;stroke-opacity:1"
       id="rect40-15"
       width="22"
       height="80"
       x="354.17514"
       y="193.34941"
       transform="rotate(38)" /><rect
       style="display:inline;fill:#2f00eb;fill-opacity:0.71;fill-rule:evenodd;stroke:none;stroke-width:0.197661;stroke-dasharray:none;stroke-opacity:1"
       id="rect40-7"
       width="22"
       height="80"
       x="323.06985"
       y="193.34941"
       transform="rotate(38)" /><path
       style="opacity:1;fill:#2f00eb;fill-opacity:0.71;fill-rule:evenodd;stroke:none;stroke-width:0.328128;stroke-dasharray:none;stroke-opacity:1"
       id="path46"
       sodipodi:type="arc"
       sodipodi:cx="250.125"
       sodipodi:cy="249.875"
       sodipodi:rx="203"
       sodipodi:ry="203"
       sodipodi:start="5.3756141"
       sodipodi:end="0"
       sodipodi:arc-type="slice"
       d="M 375.10428,89.908817 A 203,203 0 0 1 453.125,249.875 h -203 z" /></g><g
     inkscape:groupmode="layer"
     id="g17"
     inkscape:label="Pre-Bake V2"
     style="display:none"><text
       xml:space="preserve"
       id="text2"
       style="font-style:normal;font-variant:normal;font-weight:500;font-stretch:normal;font-size:303.391px;font-family:Montserrat;-inkscape-font-specification:'Montserrat Medium';letter-spacing:-5px;word-spacing:-10px;white-space:pre;shape-inside:url(#rect2);display:inline;fill:#e14a6d;fill-opacity:1"
       transform="matrix(1.7920945,0,0,1.7920945,-506.35989,-194.37929)"
       inkscape:label="Text"><tspan
         x="543.21289"
         y="354.15329"
         id="tspan3"><tspan
           style="font-weight:normal;-inkscape-font-specification:Montserrat"
           id="tspan2">PENSHOCK</tspan></tspan></text><g
       id="g18"
       inkscape:label="Icon"><path
         id="path9"
         style="display:inline;opacity:1;fill:#e14a6d;fill-opacity:1;fill-rule:evenodd;stroke:none;stroke-width:0.194537;stroke-dasharray:none;stroke-opacity:1"
         d="m 250.125,35.875 a 214,214 0 0 0 -214,214 214,214 0 0 0 214,214 214,214 0 0 0 214,-214 214,214 0 0 0 -214,-214 z m 0,41.087891 a 172.84727,172.91135 0 0 1 8.48047,0.208984 172.84727,172.91135 0 0 1 8.46094,0.625 172.84727,172.91135 0 0 1 8.41992,1.039063 172.84727,172.91135 0 0 1 8.35937,1.449218 172.84727,172.91135 0 0 1 8.27735,1.861328 172.84727,172.91135 0 0 1 8.17773,2.261719 172.84727,172.91135 0 0 1 8.05469,2.664063 172.84727,172.91135 0 0 1 7.91601,3.052734 172.84727,172.91135 0 0 1 7.75586,3.439453 172.84727,172.91135 0 0 1 7.57813,3.816406 172.84727,172.91135 0 0 1 7.38086,4.183591 172.84727,172.91135 0 0 1 7.16797,4.53907 172.84727,172.91135 0 0 1 6.93554,4.88867 172.84727,172.91135 0 0 1 6.6875,5.2207 172.84727,172.91135 0 0 1 6.42383,5.54297 172.84727,172.91135 0 0 1 6.14453,5.85156 172.84727,172.91135 0 0 1 5.85157,6.14649 172.84727,172.91135 0 0 1 5.54101,6.42773 172.84727,172.91135 0 0 1 5.21875,6.68945 172.84727,172.91135 0 0 1 4.88477,6.93946 172.84727,172.91135 0 0 1 4.53906,7.16992 172.84727,172.91135 0 0 1 4.18164,7.38476 172.84727,172.91135 0 0 1 3.81445,7.58008 172.84727,172.91135 0 0 1 3.4375,7.75977 172.84727,172.91135 0 0 1 3.05469,7.91797 172.84727,172.91135 0 0 1 2.66016,8.05859 172.84727,172.91135 0 0 1 2.26367,8.17969 172.84727,172.91135 0 0 1 1.85742,8.28125 172.84727,172.91135 0 0 1 1.45117,8.36133 172.84727,172.91135 0 0 1 1.03906,8.42187 172.84727,172.91135 0 0 1 0.62305,8.46484 172.84727,172.91135 0 0 1 0.20899,8.48438 172.84727,172.91135 0 0 1 -1.75977,24.60742 172.84727,172.91135 0 0 1 -5.24219,24.10742 172.84727,172.91135 0 0 1 -8.61914,23.11524 172.84727,172.91135 0 0 1 -11.81836,21.65234 172.84727,172.91135 0 0 1 -14.77929,19.75 172.84727,172.91135 0 0 1 -17.4375,17.44531 172.84727,172.91135 0 0 1 -19.74219,14.78516 172.84727,172.91135 0 0 1 -21.64649,11.82227 172.84727,172.91135 0 0 1 -23.10546,8.62109 172.84727,172.91135 0 0 1 -24.09766,5.24414 172.84727,172.91135 0 0 1 -24.59961,1.76172 172.84727,172.91135 0 0 1 -24.59961,-1.76172 172.84727,172.91135 0 0 1 -24.09766,-5.24414 172.84727,172.91135 0 0 1 -23.10546,-8.62109 172.84727,172.91135 0 0 1 -21.64649,-11.82227 172.84727,172.91135 0 0 1 -19.74219,-14.78516 172.84727,172.91135 0 0 1 -17.4375,-17.44531 172.84727,172.91135 0 0 1 -14.77929,-19.75 172.84727,172.91135 0 0 1 -11.818362,-21.65234 172.84727,172.91135 0 0 1 -8.619141,-23.11524 172.84727,172.91135 0 0 1 -5.242188,-24.10742 172.84727,172.91135 0 0 1 -1.759765,-24.60742 172.84727,172.91135 0 0 1 1.759765,-24.60742 172.84727,172.91135 0 0 1 5.242188,-24.10742 172.84727,172.91135 0 0 1 8.619141,-23.11524 172.84727,172.91135 0 0 1 11.818362,-21.65234 172.84727,172.91135 0 0 1 14.77929,-19.75 172.84727,172.91135 0 0 1 17.4375,-17.44531 172.84727,172.91135 0 0 1 19.74219,-14.78516 172.84727,172.91135 0 0 1 21.64649,-11.822266 172.84727,172.91135 0 0 1 23.10546,-8.621094 172.84727,172.91135 0 0 1 24.09766,-5.244141 172.84727,172.91135 0 0 1 24.59961,-1.761718 z" /><rect
         style="display:inline;opacity:1;fill:#2f00eb;fill-opacity:0.71;fill-rule:evenodd;stroke:none;stroke-width:0.197661;stroke-dasharray:none;stroke-opacity:1"
         id="rect10"
         width="22"
         height="80"
         x="291.96457"
         y="193.34941"
         transform="rotate(38)" /><rect
         style="display:inline;fill:#2f00eb;fill-opacity:0.71;fill-rule:evenodd;stroke:none;stroke-width:0.197661;stroke-dasharray:none;stroke-opacity:1"
         id="rect11"
         width="22"
         height="80"
         x="385.28043"
         y="193.34941"
         transform="rotate(38)" /><rect
         style="display:inline;fill:#2f00eb;fill-opacity:0.71;fill-rule:evenodd;stroke:none;stroke-width:0.197661;stroke-dasharray:none;stroke-opacity:1"
         id="rect12"
         width="22"
         height="80"
         x="354.17514"
         y="193.34941"
         transform="rotate(38)" /><rect
         style="display:inline;fill:#2f00eb;fill-opacity:0.71;fill-rule:evenodd;stroke:none;stroke-width:0.197661;stroke-dasharray:none;stroke-opacity:1"
         id="rect13"
         width="22"
         height="80"
         x="323.06985"
         y="193.34941"
         transform="rotate(38)" /><rect
         style="display:inline;opacity:1;fill:#2f00eb;fill-opacity:0.71;fill-rule:evenodd;stroke:none;stroke-width:0.197661;stroke-dasharray:none;stroke-opacity:1"
         id="rect14"
         width="22"
         height="80"
         x="293.4642"
         y="-199.63161"
         transform="rotate(38)" /><rect
         style="display:inline;fill:#2f00eb;fill-opacity:0.71;fill-rule:evenodd;stroke:none;stroke-width:0.197661;stroke-dasharray:none;stroke-opacity:1"
         id="rect15"
         width="22"
         height="80"
         x="386.78006"
         y="-199.63161"
         transform="rotate(38)" /><rect
         style="display:inline;fill:#2f00eb;fill-opacity:0.71;fill-rule:evenodd;stroke:none;stroke-width:0.197661;stroke-dasharray:none;stroke-opacity:1"
         id="rect16"
         width="22"
         height="80"
         x="355.67477"
         y="-199.63161"
         transform="rotate(38)" /><rect
         style="display:inline;fill:#2f00eb;fill-opacity:0.71;fill-rule:evenodd;stroke:none;stroke-width:0.197661;stroke-dasharray:none;stroke-opacity:1"
         id="rect17"
         width="22"
         height="80"
         x="324.56949"
         y="-199.63161"
         transform="rotate(38)" /></g></g><g
     inkscape:groupmode="layer"
     id="g26"
     inkscape:label="Baked"
     style="display:inline"
     inkscape:export-filename="Logo.svg"
     inkscape:export-xdpi="114.84112"
     inkscape:export-ydpi="114.84112"><text
       xml:space="preserve"
       id="text18"
       style="font-style:normal;font-variant:normal;font-weight:500;font-stretch:normal;font-size:303.391px;font-family:Montserrat;-inkscape-font-specification:'Montserrat Medium';letter-spacing:-5px;word-spacing:-10px;white-space:pre;shape-inside:url(#rect26);display:inline;fill:#e14a6d;fill-opacity:1"
       transform="matrix(1.7920945,0,0,1.7920945,-506.35989,-194.37929)"
       inkscape:label="Text"><tspan
         x="543.21289"
         y="354.15329"
         id="tspan5"><tspan
           style="font-weight:normal;-inkscape-font-specification:Montserrat"
           id="tspan4">PENSHOCK</tspan></tspan></text><g
       id="g25"
       inkscape:label="Icon"><path
         id="path18"
         style="display:inline;opacity:1;fill:#e14a6d;fill-opacity:1;fill-rule:evenodd;stroke:none;stroke-width:0.194537;stroke-dasharray:none;stroke-opacity:1"
         d="M 250.125 35.875 A 214 214 0 0 0 36.125 249.875 A 214 214 0 0 0 77.337891 375.24414 L 103.70117 341.49805 A 172.84727 172.91135 0 0 1 92.898438 321.70508 A 172.84727 172.91135 0 0 1 84.279297 298.58984 A 172.84727 172.91135 0 0 1 79.037109 274.48242 A 172.84727 172.91135 0 0 1 77.277344 249.875 A 172.84727 172.91135 0 0 1 79.037109 225.26758 A 172.84727 172.91135 0 0 1 84.279297 201.16016 A 172.84727 172.91135 0 0 1 92.898438 178.04492 A 172.84727 172.91135 0 0 1 104.7168 156.39258 A 172.84727 172.91135 0 0 1 119.49609 136.64258 A 172.84727 172.91135 0 0 1 136.93359 119.19727 A 172.84727 172.91135 0 0 1 156.67578 104.41211 A 172.84727 172.91135 0 0 1 178.32227 92.589844 A 172.84727 172.91135 0 0 1 201.42773 83.96875 A 172.84727 172.91135 0 0 1 225.52539 78.724609 A 172.84727 172.91135 0 0 1 250.125 76.962891 A 172.84727 172.91135 0 0 1 258.60547 77.171875 A 172.84727 172.91135 0 0 1 267.06641 77.796875 A 172.84727 172.91135 0 0 1 275.48633 78.835938 A 172.84727 172.91135 0 0 1 283.8457 80.285156 A 172.84727 172.91135 0 0 1 292.12305 82.146484 A 172.84727 172.91135 0 0 1 300.30078 84.408203 A 172.84727 172.91135 0 0 1 305.19922 86.029297 L 331.74023 52.056641 A 214 214 0 0 0 250.125 35.875 z M 352.08203 61.755859 L 326.32422 94.720703 A 172.84727 172.91135 0 0 1 331.60547 97.380859 A 172.84727 172.91135 0 0 1 334.51367 99.029297 L 360.0918 66.291016 A 214 214 0 0 0 352.08203 61.755859 z M 378.39258 78.603516 L 353.08789 110.99023 A 172.84727 172.91135 0 0 1 353.08984 110.99219 A 172.84727 172.91135 0 0 1 359.77734 116.21289 A 172.84727 172.91135 0 0 1 360.24609 116.61719 L 385.57031 84.205078 A 214 214 0 0 0 378.39258 78.603516 z M 401.90234 99.033203 L 376.31836 131.7793 A 172.84727 172.91135 0 0 1 378.19727 133.75391 A 172.84727 172.91135 0 0 1 382.46484 138.70312 L 408.25 105.69922 A 214 214 0 0 0 401.90234 99.033203 z M 422.53906 123.14258 L 395.96289 157.16016 A 172.84727 172.91135 0 0 1 398.38086 160.98047 A 172.84727 172.91135 0 0 1 402.5625 168.36523 A 172.84727 172.91135 0 0 1 406.37695 175.94531 A 172.84727 172.91135 0 0 1 409.81445 183.70508 A 172.84727 172.91135 0 0 1 412.86914 191.62305 A 172.84727 172.91135 0 0 1 415.5293 199.68164 A 172.84727 172.91135 0 0 1 417.79297 207.86133 A 172.84727 172.91135 0 0 1 419.65039 216.14258 A 172.84727 172.91135 0 0 1 421.10156 224.50391 A 172.84727 172.91135 0 0 1 422.14062 232.92578 A 172.84727 172.91135 0 0 1 422.76367 241.39062 A 172.84727 172.91135 0 0 1 422.97266 249.875 A 172.84727 172.91135 0 0 1 421.21289 274.48242 A 172.84727 172.91135 0 0 1 415.9707 298.58984 A 172.84727 172.91135 0 0 1 407.35156 321.70508 A 172.84727 172.91135 0 0 1 395.5332 343.35742 A 172.84727 172.91135 0 0 1 380.75391 363.10742 A 172.84727 172.91135 0 0 1 363.31641 380.55273 A 172.84727 172.91135 0 0 1 343.57422 395.33789 A 172.84727 172.91135 0 0 1 321.92773 407.16016 A 172.84727 172.91135 0 0 1 298.82227 415.78125 A 172.84727 172.91135 0 0 1 274.72461 421.02539 A 172.84727 172.91135 0 0 1 250.125 422.78711 A 172.84727 172.91135 0 0 1 225.52539 421.02539 A 172.84727 172.91135 0 0 1 201.42773 415.78125 A 172.84727 172.91135 0 0 1 194.12891 413.05859 L 167.66016 446.9375 A 214 214 0 0 0 250.125 463.875 A 214 214 0 0 0 464.125 249.875 A 214 214 0 0 0 422.53906 123.14258 z M 117.16797 359.99609 L 91.380859 393.00195 A 214 214 0 0 0 97.867188 399.48828 L 123.31055 366.92383 A 172.84727 172.91135 0 0 1 119.49609 363.10742 A 172.84727 172.91135 0 0 1 117.16797 359.99609 z M 139.23438 382.27539 L 113.98047 414.59766 A 214 214 0 0 0 121.27148 420.05469 L 146.52344 387.73438 A 172.84727 172.91135 0 0 1 139.23438 382.27539 z M 164.96484 399.86523 L 139.38086 432.60742 A 214 214 0 0 0 147.48242 437.03125 L 173.0625 404.28711 A 172.84727 172.91135 0 0 1 164.96484 399.86523 z "
         inkscape:label="Circle" /><path
         style="display:inline;opacity:1;fill:#afe3fe;fill-opacity:1;fill-rule:evenodd;stroke:none;stroke-width:0.2;stroke-dasharray:none;stroke-opacity:1"
         d="M 279,112 254.5,232.5 H 328 L 221,388 245.5,267.5 H 172 Z"
         id="path134"
         sodipodi:nodetypes="ccccccc"
         inkscape:label="Bolt" /></g></g></svg>
